<?xml version="1.0" standalone="no"?><!DOCTYPE svg PUBLIC "-//W3C//DTD SVG 1.1//EN" 	"http://www.w3.org/Graphics/SVG/1.1/DTD/svg11.dtd"><svg width="1366" height="657" version="1.1"	xmlns="http://www.w3.org/2000/svg"><title>Krona (snapshot) - Root</title><defs>	<style type="text/css">	text {font-size: 11px; font-family: sans-serif; dominant-baseline:central}	path {stroke-width:0.27499999999999997;}	path.wedge {stroke:none}	path.line {fill:none;stroke:black;}	line {stroke:black;stroke-width:0.27499999999999997;}	line.tick {stroke-width:0.5499999999999999;}	line.pattern {stroke-width:0.18333333333333332;}	circle {fill:none;stroke:black;stroke-width:0.27499999999999997;}	rect {stroke:black;stroke-width:0.27499999999999997;}	.highlight {stroke:black;stroke-width:1.375;}	.searchHighlight {fill:rgb(255, 255, 100);stroke:none;}	</style><pattern id="hiddenPattern" patternUnits="userSpaceOnUse" x="0" y="0" width="6.6" height="6.6"><line class="pattern" x1="0" y1="0" x2="3.3" y2="3.3"/><line class="pattern" x1="3.3" y1="6.6" x2="6.6" y2="3.3"/></pattern></defs><path class="wedge" fill="rgb(220,220,220)" d=" M 608.89036866139,394.1939665695931 L 611.5614746455597,591.2758662783724 A 262.8,262.8 0 0,1 608.0000000000001,591.3 L 608,394.2 A 65.7,65.7 0 0 0 608.89036866139,394.1939665695931 Z "/><path class="wedge" fill="rgb(207,111,111)" d=" M 608,394.2 L 608,591.3 A 262.8,262.8 0 1,1 870.3323259992885,344.17133484432856 L 673.5830814998221,332.41783371108215 A 65.7,65.7 0 1 0 608,394.2 Z "/><path class="wedge" fill="rgb(111,207,111)" d=" M 673.5830814998221,332.41783371108215 L 870.3323259992885,344.17133484432856 A 262.8,262.8 0 0,1 612.2060346148183,591.2663396875996 L 609.0515086537046,394.1915849218999 A 65.7,65.7 0 0 0 673.5830814998221,332.41783371108215 Z "/><path class="wedge" fill="rgb(111,207,111)" d=" M 613.4409470338327,436.21599372755713 L 621.2576432991847,590.9653784676211 A 262.8,262.8 0 0,1 612.2060346148183,591.2663396875996 L 609.7261598494734,436.33950844432746 A 107.8533226624943,107.8533226624943 0 0 0 613.4409470338327,436.21599372755713 Z "/><path class="wedge" fill="rgb(121,210,121)" d=" M 715.6613888919478,334.9315279053172 L 870.3323259992885,344.17133484432856 A 262.8,262.8 0 0,1 679.340366718439,581.4315956468836 L 637.2781415165315,432.3033219057948 A 107.8533226624943,107.8533226624943 0 0 0 715.6613888919478,334.9315279053172 Z "/><path class="wedge" fill="rgb(121,210,121)" d=" M 650.2449883306693,460.13535541444287 L 688.3048434636589,578.7298385810078 A 262.8,262.8 0 0,1 679.340366718439,581.4315956468836 L 645.5291555221072,461.5566357606511 A 138.24798672727601,138.24798672727601 0 0 0 650.2449883306693,460.13535541444287 Z "/><path class="wedge" fill="rgb(130,213,130)" d=" M 746.0019631768838,336.7440277456523 L 870.3323259992885,344.17133484432856 A 262.8,262.8 0 0,1 749.8017503093187,549.7602621557103 L 682.5959151243044,444.895684116348 A 138.24798672727601,138.24798672727601 0 0 0 746.0019631768838,336.7440277456523 Z "/><path class="wedge" fill="rgb(130,213,130)" d=" M 699.0394726184365,461.505671850465 L 756.4384580165485,545.3636995480558 A 262.8,262.8 0 0,1 749.8017503093187,549.7602621557103 L 694.9690829252105,464.20214786135284 A 161.17907531387755,161.17907531387755 0 0 0 699.0394726184365,461.505671850465 Z "/><path class="wedge" fill="rgb(140,216,140)" d=" M 768.8922440239878,338.11145836812415 L 870.3323259992885,344.17133484432856 A 262.8,262.8 0 0,1 832.4707608964464,465.16278755597807 L 745.6711935931953,412.31728207035553 A 161.17907531387755,161.17907531387755 0 0 0 768.8922440239878,338.11145836812415 Z "/><path class="wedge" fill="rgb(140,216,140)" d=" M 761.0054163875176,421.5630965219786 L 832.5294045051296,465.06641795321394 A 262.8,262.8 0 0,1 832.4707608964464,465.16278755597807 L 760.965453738595,421.62876752498386 A 179.0848887488186,179.0848887488186 0 0 0 761.0054163875176,421.5630965219786 Z "/><path class="wedge" fill="rgb(149,219,149)" d=" M 786.7661926057891,339.17922091758777 L 870.3323259992885,344.17133484432856 A 262.8,262.8 0 0,1 833.1634411714488,464.0185033854475 L 761.4374802606167,420.848995822638 A 179.0848887488186,179.0848887488186 0 0 0 786.7661926057891,339.17922091758777 Z "/><path class="wedge" fill="rgb(149,219,149)" d=" M 779.2441000781429,418.4892008490194 L 840.6344406375339,450.7499776247903 A 262.8,262.8 0 0,1 833.1634411714488,464.0185033854475 L 773.7446367280562,428.2562703638366 A 193.4492131827322,193.4492131827322 0 0 0 779.2441000781429,418.4892008490194 Z "/><path class="wedge" fill="rgb(159,223,159)" d=" M 801.104954554636,340.03579678523016 L 870.3323259992885,344.17133484432856 A 262.8,262.8 0 0,1 867.8419361113822,367.81931125907926 L 799.2717583433207,357.4432641779141 A 193.4492131827322,193.4492131827322 0 0 0 801.104954554636,340.03579678523016 Z "/><path class="wedge" fill="rgb(159,223,159)" d=" M 811.0105556447343,358.57043417512443 L 867.9636358168983,367.00646767569117 A 262.8,262.8 0 0,1 867.8419361113822,367.81931125907926 L 810.9155180262575,359.2051992144629 A 205.22552646945329,205.22552646945329 0 0 0 811.0105556447343,358.57043417512443 Z "/><path class="wedge" fill="rgb(168,226,168)" d=" M 812.8603109328775,340.7380439265845 L 870.3323259992885,344.17133484432856 A 262.8,262.8 0 0,1 868.9880853987083,359.30680574023467 L 811.8105678394388,352.5576214873738 A 205.22552646945329,205.22552646945329 0 0 0 812.8603109328775,340.7380439265845 Z "/><path class="wedge" fill="rgb(168,226,168)" d=" M 822.467084743034,344.37686295016647 L 870.0828287604047,347.90182643321003 A 262.8,262.8 0 0,1 868.9880853987083,359.30680574023467 L 821.5712365929079,353.7097623053101 A 215.05395884594657,215.05395884594657 0 0 0 822.467084743034,344.37686295016647 Z "/><path class="wedge" fill="rgb(178,229,178)" d=" M 822.6712528135937,341.32413469814793 L 870.3323259992885,344.17133484432856 A 262.8,262.8 0 0,1 870.0828287604047,347.90182643321003 L 822.467084743034,344.37686295016647 A 215.05395884594657,215.05395884594657 0 0 0 822.6712528135937,341.32413469814793 Z "/><path class="wedge" fill="url(#hiddenPattern)" d=" M 822.6712528135937,341.32413469814793 L 870.3323259992885,344.17133484432856 A 262.8,262.8 0 0,1 870.0828287604047,347.90182643321003 L 822.467084743034,344.37686295016647 A 215.05395884594657,215.05395884594657 0 0 0 822.6712528135937,341.32413469814793 Z "/><path class="wedge" fill="rgb(159,223,160)" d=" M 811.8105678394388,352.5576214873738 L 868.9880853987083,359.30680574023467 A 262.8,262.8 0 0,1 867.9636358168983,367.00646767569117 L 811.0105556447343,358.57043417512443 A 205.22552646945329,205.22552646945329 0 0 0 811.8105678394388,352.5576214873738 Z "/><path class="wedge" fill="url(#hiddenPattern)" d=" M 811.8105678394388,352.5576214873738 L 868.9880853987083,359.30680574023467 A 262.8,262.8 0 0,1 867.9636358168983,367.00646767569117 L 811.0105556447343,358.57043417512443 A 205.22552646945329,205.22552646945329 0 0 0 811.8105678394388,352.5576214873738 Z "/><path class="wedge" fill="rgb(149,219,151)" d=" M 799.2717583433207,357.4432641779141 L 867.8419361113822,367.81931125907926 A 262.8,262.8 0 0,1 864.3582885016124,386.32964565449157 L 796.7074170605357,371.06887157723594 A 193.4492131827322,193.4492131827322 0 0 0 799.2717583433207,357.4432641779141 Z "/><path class="wedge" fill="url(#hiddenPattern)" d=" M 799.2717583433207,357.4432641779141 L 867.8419361113822,367.81931125907926 A 262.8,262.8 0 0,1 864.3582885016124,386.32964565449157 L 796.7074170605357,371.06887157723594 A 193.4492131827322,193.4492131827322 0 0 0 799.2717583433207,357.4432641779141 Z "/><path class="wedge" fill="rgb(149,219,157)" d=" M 796.7074170605357,371.06887157723594 L 864.3582885016124,386.32964565449157 A 262.8,262.8 0 0,1 840.6344406375339,450.7499776247903 L 779.2441000781429,418.4892008490194 A 193.4492131827322,193.4492131827322 0 0 0 796.7074170605357,371.06887157723594 Z "/><path class="wedge" fill="url(#hiddenPattern)" d=" M 796.7074170605357,371.06887157723594 L 864.3582885016124,386.32964565449157 A 262.8,262.8 0 0,1 840.6344406375339,450.7499776247903 L 779.2441000781429,418.4892008490194 A 193.4492131827322,193.4492131827322 0 0 0 796.7074170605357,371.06887157723594 Z "/><path class="wedge" fill="rgb(140,216,152)" d=" M 761.4374802606167,420.848995822638 L 833.1634411714488,464.0185033854475 A 262.8,262.8 0 0,1 832.5294045051296,465.06641795321394 L 761.0054163875176,421.5630965219786 A 179.0848887488186,179.0848887488186 0 0 0 761.4374802606167,420.848995822638 Z "/><path class="wedge" fill="url(#hiddenPattern)" d=" M 761.4374802606167,420.848995822638 L 833.1634411714488,464.0185033854475 A 262.8,262.8 0 0,1 832.5294045051296,465.06641795321394 L 761.0054163875176,421.5630965219786 A 179.0848887488186,179.0848887488186 0 0 0 761.4374802606167,420.848995822638 Z "/><path class="wedge" fill="rgb(140,216,152)" d=" M 745.6711935931953,412.31728207035553 L 832.4707608964464,465.16278755597807 A 262.8,262.8 0 0,1 793.6965668949438,514.4586648786005 L 721.8904145399111,442.55116305835645 A 161.17907531387755,161.17907531387755 0 0 0 745.6711935931953,412.31728207035553 Z "/><path class="wedge" fill="rgb(140,216,152)" d=" M 735.0082053911293,454.7549529384944 L 794.3795243137675,513.7741560946204 A 262.8,262.8 0 0,1 793.6965668949438,514.4586648786005 L 734.5428045031148,455.22141100328395 A 179.0848887488186,179.0848887488186 0 0 0 735.0082053911293,454.7549529384944 Z "/><path class="wedge" fill="rgb(149,219,161)" d=" M 760.965453738595,421.62876752498386 L 832.4707608964464,465.16278755597807 A 262.8,262.8 0 0,1 802.6789974453056,505.03307892202724 L 740.6638759483413,448.7983515952727 A 179.0848887488186,179.0848887488186 0 0 0 760.965453738595,421.62876752498386 Z "/><path class="wedge" fill="rgb(149,219,161)" d=" M 751.8850751951251,457.8046140596358 L 803.4673122684696,504.1598128045814 A 262.8,262.8 0 0,1 802.6789974453056,505.03307892202724 L 751.3047902549372,458.4474323371055 A 193.4492131827322,193.4492131827322 0 0 0 751.8850751951251,457.8046140596358 Z "/><path class="wedge" fill="rgb(159,223,169)" d=" M 773.2347491550486,429.09858723007164 L 832.4707608964464,465.16278755597807 A 262.8,262.8 0 0,1 809.9618648734581,496.6524461220681 L 756.6657680848089,452.27838050633886 A 193.4492131827322,193.4492131827322 0 0 0 773.2347491550486,429.09858723007164 Z "/><path class="wedge" fill="rgb(159,223,169)" d=" M 766.6938588000935,458.6298424413104 L 811.2142239326747,495.1367882294925 A 262.8,262.8 0 0,1 809.9618648734581,496.6524461220681 L 765.7158677526942,459.81344856365223 A 205.22552646945329,205.22552646945329 0 0 0 766.6938588000935,458.6298424413104 Z "/><path class="wedge" fill="rgb(159,223,169)" d=" M 783.2934934626027,435.22257429588524 L 832.4707608964464,465.16278755597807 A 262.8,262.8 0 0,1 815.6260652507578,489.6063531599174 L 770.1391497331349,454.31102033796697 A 205.22552646945329,205.22552646945329 0 0 0 783.2934934626027,435.22257429588524 Z "/><path class="wedge" fill="url(#hiddenPattern)" d=" M 783.2934934626027,435.22257429588524 L 832.4707608964464,465.16278755597807 A 262.8,262.8 0 0,1 815.6260652507578,489.6063531599174 L 770.1391497331349,454.31102033796697 A 205.22552646945329,205.22552646945329 0 0 0 783.2934934626027,435.22257429588524 Z "/><path class="wedge" fill="rgb(168,226,180)" d=" M 770.1391497331349,454.31102033796697 L 815.6260652507578,489.6063531599174 A 262.8,262.8 0 0,1 811.2142239326747,495.1367882294925 L 766.6938588000935,458.6298424413104 A 205.22552646945329,205.22552646945329 0 0 0 770.1391497331349,454.31102033796697 Z "/><path class="wedge" fill="url(#hiddenPattern)" d=" M 770.1391497331349,454.31102033796697 L 815.6260652507578,489.6063531599174 A 262.8,262.8 0 0,1 811.2142239326747,495.1367882294925 L 766.6938588000935,458.6298424413104 A 205.22552646945329,205.22552646945329 0 0 0 770.1391497331349,454.31102033796697 Z "/><path class="wedge" fill="rgb(149,219,164)" d=" M 756.6657680848089,452.27838050633886 L 809.9618648734581,496.6524461220681 A 262.8,262.8 0 0,1 803.4673122684696,504.1598128045814 L 751.8850751951251,457.8046140596358 A 193.4492131827322,193.4492131827322 0 0 0 756.6657680848089,452.27838050633886 Z "/><path class="wedge" fill="url(#hiddenPattern)" d=" M 756.6657680848089,452.27838050633886 L 809.9618648734581,496.6524461220681 A 262.8,262.8 0 0,1 803.4673122684696,504.1598128045814 L 751.8850751951251,457.8046140596358 A 193.4492131827322,193.4492131827322 0 0 0 756.6657680848089,452.27838050633886 Z "/><path class="wedge" fill="rgb(140,216,157)" d=" M 740.6638759483413,448.7983515952727 L 802.6789974453056,505.03307892202724 A 262.8,262.8 0 0,1 794.3795243137675,513.7741560946204 L 735.0082053911293,454.7549529384944 A 179.0848887488186,179.0848887488186 0 0 0 740.6638759483413,448.7983515952727 Z "/><path class="wedge" fill="url(#hiddenPattern)" d=" M 740.6638759483413,448.7983515952727 L 802.6789974453056,505.03307892202724 A 262.8,262.8 0 0,1 794.3795243137675,513.7741560946204 L 735.0082053911293,454.7549529384944 A 179.0848887488186,179.0848887488186 0 0 0 740.6638759483413,448.7983515952727 Z "/><path class="wedge" fill="rgb(140,216,158)" d=" M 721.8904145399111,442.55116305835645 L 793.6965668949438,514.4586648786005 A 262.8,262.8 0 0,1 767.6125383223884,537.2766213211721 L 705.8926991449902,456.54574875076895 A 161.17907531387755,161.17907531387755 0 0 0 721.8904145399111,442.55116305835645 Z "/><path class="wedge" fill="rgb(140,216,158)" d=" M 718.2450894018663,469.62908148553663 L 769.7803137787168,535.6013521772852 A 262.8,262.8 0 0,1 767.6125383223884,537.2766213211721 L 716.7678602297622,470.7706925519647 A 179.0848887488186,179.0848887488186 0 0 0 718.2450894018663,469.62908148553663 Z "/><path class="wedge" fill="rgb(140,216,160)" d=" M 734.5428045031148,455.22141100328395 L 793.6965668949438,514.4586648786005 A 262.8,262.8 0 0,1 769.7803137787168,535.6013521772852 L 718.2450894018663,469.62908148553663 A 179.0848887488186,179.0848887488186 0 0 0 734.5428045031148,455.22141100328395 Z "/><path class="wedge" fill="url(#hiddenPattern)" d=" M 734.5428045031148,455.22141100328395 L 793.6965668949438,514.4586648786005 A 262.8,262.8 0 0,1 769.7803137787168,535.6013521772852 L 718.2450894018663,469.62908148553663 A 179.0848887488186,179.0848887488186 0 0 0 734.5428045031148,455.22141100328395 Z "/><path class="wedge" fill="rgb(130,213,155)" d=" M 705.8926991449902,456.54574875076895 L 767.6125383223884,537.2766213211721 A 262.8,262.8 0 0,1 756.4384580165485,545.3636995480558 L 699.0394726184365,461.505671850465 A 161.17907531387755,161.17907531387755 0 0 0 705.8926991449902,456.54574875076895 Z "/><path class="wedge" fill="url(#hiddenPattern)" d=" M 705.8926991449902,456.54574875076895 L 767.6125383223884,537.2766213211721 A 262.8,262.8 0 0,1 756.4384580165485,545.3636995480558 L 699.0394726184365,461.505671850465 A 161.17907531387755,161.17907531387755 0 0 0 705.8926991449902,456.54574875076895 Z "/><path class="wedge" fill="rgb(130,213,156)" d=" M 682.5959151243044,444.895684116348 L 749.8017503093187,549.7602621557103 A 262.8,262.8 0 0,1 719.1914586891152,566.6182469164991 L 666.4931328197841,453.76395829236833 A 138.24798672727601,138.24798672727601 0 0 0 682.5959151243044,444.895684116348 Z "/><path class="wedge" fill="rgb(130,213,156)" d=" M 676.6070365292495,474.34844482445067 L 719.8627164523408,566.3036430921595 A 262.8,262.8 0 0,1 719.1914586891152,566.6182469164991 L 676.1953443467002,474.5413959412591 A 161.17907531387755,161.17907531387755 0 0 0 676.6070365292495,474.34844482445067 Z "/><path class="wedge" fill="rgb(130,213,156)" d=" M 694.9690829252105,464.20214786135284 L 749.8017503093187,549.7602621557103 A 262.8,262.8 0 0,1 723.6109484715855,564.5041283399518 L 678.9058819285026,473.24477616473024 A 161.17907531387755,161.17907531387755 0 0 0 694.9690829252105,464.20214786135284 Z "/><path class="wedge" fill="url(#hiddenPattern)" d=" M 694.9690829252105,464.20214786135284 L 749.8017503093187,549.7602621557103 A 262.8,262.8 0 0,1 723.6109484715855,564.5041283399518 L 678.9058819285026,473.24477616473024 A 161.17907531387755,161.17907531387755 0 0 0 694.9690829252105,464.20214786135284 Z "/><path class="wedge" fill="rgb(130,213,159)" d=" M 678.9058819285026,473.24477616473024 L 723.6109484715855,564.5041283399518 A 262.8,262.8 0 0,1 719.8627164523408,566.3036430921595 L 676.6070365292495,474.34844482445067 A 161.17907531387755,161.17907531387755 0 0 0 678.9058819285026,473.24477616473024 Z "/><path class="wedge" fill="url(#hiddenPattern)" d=" M 678.9058819285026,473.24477616473024 L 723.6109484715855,564.5041283399518 A 262.8,262.8 0 0,1 719.8627164523408,566.3036430921595 L 676.6070365292495,474.34844482445067 A 161.17907531387755,161.17907531387755 0 0 0 678.9058819285026,473.24477616473024 Z "/><path class="wedge" fill="rgb(121,210,152)" d=" M 666.4931328197841,453.76395829236833 L 719.1914586891152,566.6182469164991 A 262.8,262.8 0 0,1 693.5347608598656,576.9907335991538 L 652.996227108354,459.2204856943184 A 138.24798672727601,138.24798672727601 0 0 0 666.4931328197841,453.76395829236833 Z "/><path class="wedge" fill="url(#hiddenPattern)" d=" M 666.4931328197841,453.76395829236833 L 719.1914586891152,566.6182469164991 A 262.8,262.8 0 0,1 693.5347608598656,576.9907335991538 L 652.996227108354,459.2204856943184 A 138.24798672727601,138.24798672727601 0 0 0 666.4931328197841,453.76395829236833 Z "/><path class="wedge" fill="rgb(121,210,156)" d=" M 652.996227108354,459.2204856943184 L 693.5347608598656,576.9907335991538 A 262.8,262.8 0 0,1 688.3048434636589,578.7298385810078 L 650.2449883306693,460.13535541444287 A 138.24798672727601,138.24798672727601 0 0 0 652.996227108354,459.2204856943184 Z "/><path class="wedge" fill="url(#hiddenPattern)" d=" M 652.996227108354,459.2204856943184 L 693.5347608598656,576.9907335991538 A 262.8,262.8 0 0,1 688.3048434636589,578.7298385810078 L 650.2449883306693,460.13535541444287 A 138.24798672727601,138.24798672727601 0 0 0 652.996227108354,459.2204856943184 Z "/><path class="wedge" fill="rgb(121,210,158)" d=" M 637.2781415165315,432.3033219057948 L 679.340366718439,581.4315956468836 A 262.8,262.8 0 0,1 646.9209060838893,588.401910477028 L 623.973169871318,435.16394448735775 A 107.8533226624943,107.8533226624943 0 0 0 637.2781415165315,432.3033219057948 Z "/><path class="wedge" fill="rgb(121,210,158)" d=" M 628.6926122706468,465.19060549855567 L 647.3352455501116,588.3395244328938 A 262.8,262.8 0 0,1 646.9209060838893,588.401910477028 L 628.4746457675003,465.22342416294464 A 138.24798672727601,138.24798672727601 0 0 0 628.6926122706468,465.19060549855567 Z "/><path class="wedge" fill="rgb(130,213,164)" d=" M 645.5291555221072,461.5566357606511 L 679.340366718439,581.4315956468836 A 262.8,262.8 0 0,1 659.39815484619,586.2247944579781 L 635.0383996536626,464.07813532540524 A 138.24798672727601,138.24798672727601 0 0 0 645.5291555221072,461.5566357606511 Z "/><path class="wedge" fill="rgb(130,213,164)" d=" M 639.55231739596,486.5605756853404 L 659.4455675807214,586.2153343833024 A 262.8,262.8 0 0,1 659.39815484619,586.2247944579781 L 639.5232384739285,486.56637768719963 A 161.17907531387755,161.17907531387755 0 0 0 639.55231739596,486.5605756853404 Z "/><path class="wedge" fill="rgb(130,213,164)" d=" M 651.7540880526291,483.6266389042172 L 679.340366718439,581.4315956468836 A 262.8,262.8 0 0,1 659.8880022582733,586.1266197846128 L 639.8236690406122,486.5061657272595 A 161.17907531387755,161.17907531387755 0 0 0 651.7540880526291,483.6266389042172 Z "/><path class="wedge" fill="url(#hiddenPattern)" d=" M 651.7540880526291,483.6266389042172 L 679.340366718439,581.4315956468836 A 262.8,262.8 0 0,1 659.8880022582733,586.1266197846128 L 639.8236690406122,486.5061657272595 A 161.17907531387755,161.17907531387755 0 0 0 651.7540880526291,483.6266389042172 Z "/><path class="wedge" fill="rgb(130,213,167)" d=" M 639.8236690406122,486.5061657272595 L 659.8880022582733,586.1266197846128 A 262.8,262.8 0 0,1 659.4455675807214,586.2153343833024 L 639.55231739596,486.5605756853404 A 161.17907531387755,161.17907531387755 0 0 0 639.8236690406122,486.5061657272595 Z "/><path class="wedge" fill="url(#hiddenPattern)" d=" M 639.8236690406122,486.5061657272595 L 659.8880022582733,586.1266197846128 A 262.8,262.8 0 0,1 659.4455675807214,586.2153343833024 L 639.55231739596,486.5605756853404 A 161.17907531387755,161.17907531387755 0 0 0 639.8236690406122,486.5061657272595 Z "/><path class="wedge" fill="rgb(121,210,161)" d=" M 635.0383996536626,464.07813532540524 L 659.39815484619,586.2247944579781 A 262.8,262.8 0 0,1 647.3352455501116,588.3395244328938 L 628.6926122706468,465.19060549855567 A 138.24798672727601,138.24798672727601 0 0 0 635.0383996536626,464.07813532540524 Z "/><path class="wedge" fill="url(#hiddenPattern)" d=" M 635.0383996536626,464.07813532540524 L 659.39815484619,586.2247944579781 A 262.8,262.8 0 0,1 647.3352455501116,588.3395244328938 L 628.6926122706468,465.19060549855567 A 138.24798672727601,138.24798672727601 0 0 0 635.0383996536626,464.07813532540524 Z "/><path class="wedge" fill="rgb(121,210,161)" d=" M 623.973169871318,435.16394448735775 L 646.9209060838893,588.401910477028 A 262.8,262.8 0 0,1 623.9126344388494,590.8177997491126 L 614.5305574449907,436.15542730767356 A 107.8533226624943,107.8533226624943 0 0 0 623.973169871318,435.16394448735775 Z "/><path class="wedge" fill="rgb(121,210,161)" d=" M 616.3878897479534,466.4932938215523 L 623.9448067052916,590.8158461456931 A 262.8,262.8 0 0,1 623.9126344388494,590.8177997491126 L 616.3709652766288,466.49432152984616 A 138.24798672727601,138.24798672727601 0 0 0 616.3878897479534,466.4932938215523 Z "/><path class="wedge" fill="rgb(130,213,168)" d=" M 628.4746457675003,465.22342416294464 L 646.9209060838893,588.401910477028 A 262.8,262.8 0 0,1 624.0895789292157,590.8070061014012 L 616.4640483038572,466.48864344740497 A 138.24798672727601,138.24798672727601 0 0 0 628.4746457675003,465.22342416294464 Z "/><path class="wedge" fill="rgb(130,213,168)" d=" M 617.9271658461848,489.3730732512404 L 624.1860910251343,590.8010683495705 A 262.8,262.8 0 0,1 624.0895789292157,590.8070061014012 L 617.8679735692566,489.37671496109397 A 161.17907531387755,161.17907531387755 0 0 0 617.9271658461848,489.3730732512404 Z "/><path class="wedge" fill="rgb(130,213,168)" d=" M 631.8707597145341,487.90163471460255 L 646.9209060838893,588.401910477028 A 262.8,262.8 0 0,1 624.7812000318157,590.7636675666155 L 618.2921548850277,489.3501348052255 A 161.17907531387755,161.17907531387755 0 0 0 631.8707597145341,487.90163471460255 Z "/><path class="wedge" fill="url(#hiddenPattern)" d=" M 631.8707597145341,487.90163471460255 L 646.9209060838893,588.401910477028 A 262.8,262.8 0 0,1 624.7812000318157,590.7636675666155 L 618.2921548850277,489.3501348052255 A 161.17907531387755,161.17907531387755 0 0 0 631.8707597145341,487.90163471460255 Z "/><path class="wedge" fill="rgb(130,213,170)" d=" M 618.2921548850277,489.3501348052255 L 624.7812000318157,590.7636675666155 A 262.8,262.8 0 0,1 624.1860910251343,590.8010683495705 L 617.9271658461848,489.3730732512404 A 161.17907531387755,161.17907531387755 0 0 0 618.2921548850277,489.3501348052255 Z "/><path class="wedge" fill="url(#hiddenPattern)" d=" M 618.2921548850277,489.3501348052255 L 624.7812000318157,590.7636675666155 A 262.8,262.8 0 0,1 624.1860910251343,590.8010683495705 L 617.9271658461848,489.3730732512404 A 161.17907531387755,161.17907531387755 0 0 0 618.2921548850277,489.3501348052255 Z "/><path class="wedge" fill="rgb(121,210,164)" d=" M 616.4640483038572,466.48864344740497 L 624.0895789292157,590.8070061014012 A 262.8,262.8 0 0,1 623.9448067052916,590.8158461456931 L 616.3878897479534,466.4932938215523 A 138.24798672727601,138.24798672727601 0 0 0 616.4640483038572,466.48864344740497 Z "/><path class="wedge" fill="url(#hiddenPattern)" d=" M 616.4640483038572,466.48864344740497 L 624.0895789292157,590.8070061014012 A 262.8,262.8 0 0,1 623.9448067052916,590.8158461456931 L 616.3878897479534,466.4932938215523 A 138.24798672727601,138.24798672727601 0 0 0 616.4640483038572,466.48864344740497 Z "/><path class="wedge" fill="rgb(111,207,158)" d=" M 614.5305574449907,436.15542730767356 L 623.9126344388494,590.8177997491126 A 262.8,262.8 0 0,1 621.2576432991847,590.9653784676211 L 613.4409470338327,436.21599372755713 A 107.8533226624943,107.8533226624943 0 0 0 614.5305574449907,436.15542730767356 Z "/><path class="wedge" fill="url(#hiddenPattern)" d=" M 614.5305574449907,436.15542730767356 L 623.9126344388494,590.8177997491126 A 262.8,262.8 0 0,1 621.2576432991847,590.9653784676211 L 613.4409470338327,436.21599372755713 A 107.8533226624943,107.8533226624943 0 0 0 614.5305574449907,436.15542730767356 Z "/><path class="wedge" fill="rgb(111,111,207)" d=" M 609.0515086537046,394.1915849218999 L 612.2060346148183,591.2663396875996 A 262.8,262.8 0 0,1 611.5614746455597,591.2758662783724 L 608.89036866139,394.1939665695931 A 65.7,65.7 0 0 0 609.0515086537046,394.1915849218999 Z "/><path class="wedge" fill="rgb(111,111,207)" d=" M 609.0515086537046,394.1915849218999 L 612.2060346148183,591.2663396875996 A 262.8,262.8 0 0,1 611.5614746455597,591.2758662783724 L 608.89036866139,394.1939665695931 A 65.7,65.7 0 0 0 609.0515086537046,394.1915849218999 Z "/><rect fill="rgb(111,111,207)" x="1334.145" y="595.8116666666667" width="22" height="22"/><path class="line" d="M 611.8837575511993,591.2713006157322 L 612.5310504763993,635.0665173850209 A 306.6,306.6 0 0,0 736.6319408126233,606.8116666666667 L 925.55,606.8116666666667 L 1199.6187955729167,606.8116666666667"/><text x="1326.8116666666667" y="606.8116666666667" style="font-color:black;font-weight:normal" text-anchor="end">other sequences&#160;&#160;&#160;0.04%</text><circle cx="608" cy="328.5" r="65.7"/><circle cx="608" cy="328.5" r="262.8"/><text x="608" y="328.5" text-anchor="middle" style="font-color:black;font-weight:bold" transform="rotate(360,608,328.5)">Root</text><rect fill="rgb(220,220,220)" x="1334.145" y="625.145" width="22" height="22"/><path class="line" d="M 609.7807782068161,591.293966500333 L 610.1517736665694,646.0427095212357 A 317.55,317.55 0 0,0 686.6927981139318,636.145 L 914.55,636.145 L 1229.5948697916667,636.145"/><text x="1326.8116666666667" y="636.145" style="font-color:black;font-weight:normal" text-anchor="end">[other Root]&#160;&#160;&#160;0.2%</text><path class="line" d=" M 673.5830814998221,332.41783371108215 A 65.7,65.7 0 1 0 608,394.2"/><line x1="870.3323259992885" y1="344.17133484432856" x2="673.5830814998221" y2="332.41783371108215"/><text x="443.75" y="328.5" text-anchor="end" style="font-color:black;font-weight:normal" transform="rotate(46.70934999024009,608,328.5)">No hits&#160;&#160;&#160;76%</text><path class="line" d=" M 609.0515086537046,394.1915849218999 A 65.7,65.7 0 0 0 673.5830814998221,332.41783371108215"/><line x1="612.2060346148183" y1="591.2663396875996" x2="609.0515086537046" y2="394.1915849218999"/><text x="608" y="406.8459967987483" text-anchor="middle" style="font-color:black;font-weight:normal" transform="rotate(316.25082959203587,608,328.5)">Bacteria</text><path class="line" d=" M 637.2781415165315,432.3033219057948 A 107.8533226624943,107.8533226624943 0 0 0 715.6613888919478,334.9315279053172"/><line x1="679.340366718439" y1="581.4315956468836" x2="637.2781415165315" y2="432.3033219057948"/><text x="608" y="445.47172188192883" text-anchor="middle" style="font-color:black;font-weight:normal" transform="rotate(308.83369119656453,608,328.5)">Proteobacteria</text><path class="line" d=" M 682.5959151243044,444.895684116348 A 138.24798672727601,138.24798672727601 0 0 0 746.0019631768838,336.7440277456523"/><line x1="749.8017503093187" y1="549.7602621557103" x2="682.5959151243044" y2="444.895684116348"/><text x="608" y="478.2135310205768" text-anchor="middle" style="font-color:black;font-weight:normal" transform="rotate(300.3818075346477,608,328.5)">Alphap...cteria</text><path class="line" d=" M 745.6711935931953,412.31728207035553 A 161.17907531387755,161.17907531387755 0 0 0 768.8922440239878,338.11145836812415"/><line x1="832.4707608964464" y1="465.16278755597807" x2="745.6711935931953" y2="412.31728207035553"/><text x="608" y="498.6319820313481" text-anchor="middle" style="font-color:black;font-weight:normal" transform="rotate(287.376341987117,608,328.5)">Rhod...ales</text><path class="line" d=" M 761.4374802606167,420.848995822638 A 179.0848887488186,179.0848887488186 0 0 0 786.7661926057891,339.17922091758777"/><line x1="833.1634411714488" y1="464.0185033854475" x2="761.4374802606167" y2="420.848995822638"/><text x="608" y="514.7670509657754" text-anchor="middle" style="font-color:black;font-weight:normal" transform="rotate(287.23052898692174,608,328.5)">Rhod...ceae</text><path class="line" d=" M 799.2717583433207,357.4432641779141 A 193.4492131827322,193.4492131827322 0 0 0 801.104954554636,340.03579678523016"/><line x1="867.8419361113822" y1="367.81931125907926" x2="799.2717583433207" y2="357.4432641779141"/><path class="line" d=" M 811.8105678394388,352.5576214873738 A 205.22552646945329,205.22552646945329 0 0 0 812.8603109328775,340.7380439265845"/><line x1="868.9880853987083" y1="359.30680574023467" x2="811.8105678394388" y2="352.5576214873738"/><path class="line" d=" M 822.467084743034,344.37686295016647 A 215.05395884594657,215.05395884594657 0 0 0 822.6712528135937,341.32413469814793"/><line x1="870.0828287604047" y1="347.90182643321003" x2="822.467084743034" y2="344.37686295016647"/><path class="line" d=" M 811.0105556447343,358.57043417512443 A 205.22552646945329,205.22552646945329 0 0 0 811.8105678394388,352.5576214873738"/><line x1="867.9636358168983" y1="367.00646767569117" x2="811.0105556447343" y2="358.57043417512443"/><path class="line" d=" M 796.7074170605357,371.06887157723594 A 193.4492131827322,193.4492131827322 0 0 0 799.2717583433207,357.4432641779141"/><line x1="864.3582885016124" y1="386.32964565449157" x2="796.7074170605357" y2="371.06887157723594"/><text x="836.124606591366" y="328.5" text-anchor="start" style="font-color:black;font-weight:normal" transform="rotate(370.6584032793285,608,328.5)">1%&#160;&#160;&#160;Paracoccus</text><line x1="862.55" y1="328.5" x2="879.05" y2="328.5" class="tick" transform="rotate(380.21706031622097,608,328.5)"/><text x="881.8" y="328.5" text-anchor="start" style="font-color:black;font-weight:normal" transform="rotate(380.21706031622097,608,328.5)">35 more</text><path class="line" d=" M 779.2441000781429,418.4892008490194 A 193.4492131827322,193.4492131827322 0 0 0 796.7074170605357,371.06887157723594"/><line x1="840.6344406375339" y1="450.7499776247903" x2="779.2441000781429" y2="418.4892008490194"/><path class="line" d=" M 761.0054163875176,421.5630965219786 A 179.0848887488186,179.0848887488186 0 0 0 761.4374802606167,420.848995822638"/><line x1="832.5294045051296" y1="465.06641795321394" x2="761.0054163875176" y2="421.5630965219786"/><path class="line" d=" M 721.8904145399111,442.55116305835645 A 161.17907531387755,161.17907531387755 0 0 0 745.6711935931953,412.31728207035553"/><line x1="793.6965668949438" y1="514.4586648786005" x2="721.8904145399111" y2="442.55116305835645"/><text x="608" y="498.6319820313481" text-anchor="middle" style="font-color:black;font-weight:normal" transform="rotate(308.187195002928,608,328.5)">S...s</text><path class="line" d=" M 740.6638759483413,448.7983515952727 A 179.0848887488186,179.0848887488186 0 0 0 760.965453738595,421.62876752498386"/><line x1="802.6789974453056" y1="505.03307892202724" x2="740.6638759483413" y2="448.7983515952727"/><text x="608" y="514.7670509657754" text-anchor="middle" style="font-color:black;font-weight:normal" transform="rotate(306.7677142299434,608,328.5)">Eryt...ceae</text><path class="line" d=" M 756.6657680848089,452.27838050633886 A 193.4492131827322,193.4492131827322 0 0 0 773.2347491550486,429.09858723007164"/><line x1="809.9618648734581" y1="496.6524461220681" x2="756.6657680848089" y2="452.27838050633886"/><path class="line" d=" M 770.1391497331349,454.31102033796697 A 205.22552646945329,205.22552646945329 0 0 0 783.2934934626027,435.22257429588524"/><line x1="815.6260652507578" y1="489.6063531599174" x2="770.1391497331349" y2="454.31102033796697"/><text x="842.0127632347267" y="328.5" text-anchor="start" style="font-color:black;font-weight:normal" transform="rotate(394.57173531134094,608,328.5)">2%&#160;&#160;&#160;unclassified Porphyrobacter</text><path class="line" d=" M 766.6938588000935,458.6298424413104 A 205.22552646945329,205.22552646945329 0 0 0 770.1391497331349,454.31102033796697"/><line x1="811.2142239326747" y1="495.1367882294925" x2="766.6938588000935" y2="458.6298424413104"/><path class="line" d=" M 751.8850751951251,457.8046140596358 A 193.4492131827322,193.4492131827322 0 0 0 756.6657680848089,452.27838050633886"/><line x1="803.4673122684696" y1="504.1598128045814" x2="751.8850751951251" y2="457.8046140596358"/><path class="line" d=" M 735.0082053911293,454.7549529384944 A 179.0848887488186,179.0848887488186 0 0 0 740.6638759483413,448.7983515952727"/><line x1="794.3795243137675" y1="513.7741560946204" x2="735.0082053911293" y2="454.7549529384944"/><path class="line" d=" M 705.8926991449902,456.54574875076895 A 161.17907531387755,161.17907531387755 0 0 0 721.8904145399111,442.55116305835645"/><line x1="767.6125383223884" y1="537.2766213211721" x2="705.8926991449902" y2="456.54574875076895"/><text x="608" y="498.6319820313481" text-anchor="middle" style="font-color:black;font-weight:normal" transform="rotate(318.8210033183682,608,328.5)">R...s</text><line x1="862.55" y1="328.5" x2="879.05" y2="328.5" class="tick" transform="rotate(408.5223501854383,608,328.5)"/><text x="881.8" y="328.5" text-anchor="start" style="font-color:black;font-weight:normal" transform="rotate(408.5223501854383,608,328.5)">15 more</text><path class="line" d=" M 718.2450894018663,469.62908148553663 A 179.0848887488186,179.0848887488186 0 0 0 734.5428045031148,455.22141100328395"/><line x1="769.7803137787168" y1="535.6013521772852" x2="718.2450894018663" y2="469.62908148553663"/><line x1="862.55" y1="328.5" x2="879.05" y2="328.5" class="tick" transform="rotate(414.1054069880929,608,328.5)"/><text x="881.8" y="328.5" text-anchor="start" style="font-color:black;font-weight:normal" transform="rotate(414.1054069880929,608,328.5)">8 more</text><path class="line" d=" M 699.0394726184365,461.505671850465 A 161.17907531387755,161.17907531387755 0 0 0 705.8926991449902,456.54574875076895"/><line x1="756.4384580165485" y1="545.3636995480558" x2="699.0394726184365" y2="461.505671850465"/><path class="line" d=" M 666.4931328197841,453.76395829236833 A 138.24798672727601,138.24798672727601 0 0 0 682.5959151243044,444.895684116348"/><line x1="719.1914586891152" y1="566.6182469164991" x2="666.4931328197841" y2="453.76395829236833"/><text x="608" y="478.2135310205768" text-anchor="middle" style="font-color:black;font-weight:normal" transform="rotate(331.1571344915089,608,328.5)">Be...ia</text><path class="line" d=" M 678.9058819285026,473.24477616473024 A 161.17907531387755,161.17907531387755 0 0 0 694.9690829252105,464.20214786135284"/><line x1="723.6109484715855" y1="564.5041283399518" x2="678.9058819285026" y2="473.24477616473024"/><text x="819.9895376569388" y="328.5" text-anchor="start" style="font-color:black;font-weight:normal" transform="rotate(420.62307241850476,608,328.5)">2%&#160;&#160;&#160;Burkholderiales</text><path class="line" d=" M 676.6070365292495,474.34844482445067 A 161.17907531387755,161.17907531387755 0 0 0 678.9058819285026,473.24477616473024"/><line x1="719.8627164523408" y1="566.3036430921595" x2="676.6070365292495" y2="474.34844482445067"/><path class="line" d=" M 652.996227108354,459.2204856943184 A 138.24798672727601,138.24798672727601 0 0 0 666.4931328197841,453.76395829236833"/><line x1="693.5347608598656" y1="576.9907335991538" x2="652.996227108354" y2="459.2204856943184"/><text x="808.523993363638" y="328.5" text-anchor="start" style="font-color:black;font-weight:normal" transform="rotate(427.9875073199297,608,328.5)">2%&#160;&#160;&#160;Gammaproteobacteria</text><path class="line" d=" M 650.2449883306693,460.13535541444287 A 138.24798672727601,138.24798672727601 0 0 0 652.996227108354,459.2204856943184"/><line x1="688.3048434636589" y1="578.7298385810078" x2="650.2449883306693" y2="460.13535541444287"/><path class="line" d=" M 623.973169871318,435.16394448735775 A 107.8533226624943,107.8533226624943 0 0 0 637.2781415165315,432.3033219057948"/><line x1="646.9209060838893" y1="588.401910477028" x2="623.973169871318" y2="435.16394448735775"/><text x="608" y="457.6295875078415" text-anchor="middle" style="font-color:black;font-weight:normal" transform="rotate(347.86589888737063,608,328.5)">Terrabacteria group</text><path class="line" d=" M 635.0383996536626,464.07813532540524 A 138.24798672727601,138.24798672727601 0 0 0 645.5291555221072,461.5566357606511"/><line x1="659.39815484619" y1="586.2247944579781" x2="635.0383996536626" y2="464.07813532540524"/><text x="608" y="478.2135310205768" text-anchor="middle" style="font-color:black;font-weight:normal" transform="rotate(346.48506734335353,608,328.5)">...</text><path class="line" d=" M 639.8236690406122,486.5061657272595 A 161.17907531387755,161.17907531387755 0 0 0 651.7540880526291,483.6266389042172"/><line x1="659.8880022582733" y1="586.1266197846128" x2="639.8236690406122" y2="486.5061657272595"/><text x="819.9895376569388" y="328.5" text-anchor="start" style="font-color:black;font-weight:normal" transform="rotate(436.4306070661722,608,328.5)">1%&#160;&#160;&#160;Actinobacteria</text><path class="line" d=" M 639.55231739596,486.5605756853404 A 161.17907531387755,161.17907531387755 0 0 0 639.8236690406122,486.5061657272595"/><line x1="659.4455675807214" y1="586.2153343833024" x2="639.55231739596" y2="486.5605756853404"/><path class="line" d=" M 628.6926122706468,465.19060549855567 A 138.24798672727601,138.24798672727601 0 0 0 635.0383996536626,464.07813532540524"/><line x1="647.3352455501116" y1="588.3395244328938" x2="628.6926122706468" y2="465.19060549855567"/><path class="line" d=" M 614.5305574449907,436.15542730767356 A 107.8533226624943,107.8533226624943 0 0 0 623.973169871318,435.16394448735775"/><line x1="623.9126344388494" y1="590.8177997491126" x2="614.5305574449907" y2="436.15542730767356"/><text x="608" y="445.47172188192883" text-anchor="middle" style="font-color:black;font-weight:normal" transform="rotate(354.005855943783,608,328.5)">FCB group</text><path class="line" d=" M 616.4640483038572,466.48864344740497 A 138.24798672727601,138.24798672727601 0 0 0 628.4746457675003,465.22342416294464"/><line x1="624.0895789292157" y1="590.8070061014012" x2="616.4640483038572" y2="466.48864344740497"/><text x="608" y="478.2135310205768" text-anchor="middle" style="font-color:black;font-weight:normal" transform="rotate(353.9865313292992,608,328.5)">...</text><path class="line" d=" M 618.2921548850277,489.3501348052255 A 161.17907531387755,161.17907531387755 0 0 0 631.8707597145341,487.90163471460255"/><line x1="624.7812000318157" y1="590.7636675666155" x2="618.2921548850277" y2="489.3501348052255"/><text x="819.9895376569388" y="328.5" text-anchor="start" style="font-color:black;font-weight:normal" transform="rotate(443.91098965449936,608,328.5)">1%&#160;&#160;&#160;Bacteroidetes</text><path class="line" d=" M 617.9271658461848,489.3730732512404 A 161.17907531387755,161.17907531387755 0 0 0 618.2921548850277,489.3501348052255"/><line x1="624.1860910251343" y1="590.8010683495705" x2="617.9271658461848" y2="489.3730732512404"/><path class="line" d=" M 616.3878897479534,466.4932938215523 A 138.24798672727601,138.24798672727601 0 0 0 616.4640483038572,466.48864344740497"/><line x1="623.9448067052916" y1="590.8158461456931" x2="616.3878897479534" y2="466.4932938215523"/><path class="line" d=" M 613.4409470338327,436.21599372755713 A 107.8533226624943,107.8533226624943 0 0 0 614.5305574449907,436.15542730767356"/><line x1="621.2576432991847" y1="590.9653784676211" x2="613.4409470338327" y2="436.21599372755713"/><line x1="611.5614746455597" y1="591.2758662783724" x2="608.89036866139" y2="394.1939665695931"/><path class="line" d=" M 608.89036866139,394.1939665695931 A 65.7,65.7 0 0 0 609.0515086537046,394.1915849218999"/></svg>