<?xml version="1.0" standalone="no"?><!DOCTYPE svg PUBLIC "-//W3C//DTD SVG 1.1//EN" 	"http://www.w3.org/Graphics/SVG/1.1/DTD/svg11.dtd"><svg width="1056" height="620" version="1.1"	xmlns="http://www.w3.org/2000/svg"><title>Krona (snapshot) - Root</title><defs>	<style type="text/css">	text {font-size: 11px; font-family: sans-serif; dominant-baseline:central}	path {stroke-width:0.27499999999999997;}	path.wedge {stroke:none}	path.line {fill:none;stroke:black;}	line {stroke:black;stroke-width:0.27499999999999997;}	line.tick {stroke-width:0.5499999999999999;}	line.pattern {stroke-width:0.18333333333333332;}	circle {fill:none;stroke:black;stroke-width:0.27499999999999997;}	rect {stroke:black;stroke-width:0.27499999999999997;}	.highlight {stroke:black;stroke-width:1.375;}	.searchHighlight {fill:rgb(255, 255, 100);stroke:none;}	</style><pattern id="hiddenPattern" patternUnits="userSpaceOnUse" x="0" y="0" width="6.6" height="6.6"><line class="pattern" x1="0" y1="0" x2="3.3" y2="3.3"/><line class="pattern" x1="3.3" y1="6.6" x2="6.6" y2="3.3"/></pattern></defs><path class="wedge" fill="rgb(220,220,220)" d=" M 456.49186957566906,371.90159001888816 L 466.9674783026763,557.6063600755527 A 248,248 0 0,1 453.00000000000006,558 L 453,372 A 62,62 0 0 0 456.49186957566906,371.90159001888816 Z "/><path class="wedge" fill="rgb(207,111,111)" d=" M 453,372 L 453,558 A 248,248 0 1,1 469.49208204485734,557.4510279425521 L 457.12302051121435,371.86275698563804 A 62,62 0 1 0 453,372 Z "/><path class="wedge" fill="rgb(207,111,111)" d=" M 474.2017387203274,409.5466260518132 L 504.6610596517082,552.5595492155744 A 248,248 0 0,1 469.49208204485734,557.4510279425521 L 459.76836318934676,411.5540926935082 A 101.77939124923358,101.77939124923358 0 0 0 474.2017387203274,409.5466260518132 Z "/><path class="wedge" fill="rgb(210,121,121)" d=" M 453,411.7793912492336 L 453,558 A 248,248 0 1,1 678.6579375921015,412.8712554685675 L 545.6101916075872,352.2184425751419 A 101.77939124923358,101.77939124923358 0 1 0 453,411.7793912492336 Z "/><path class="wedge" fill="rgb(210,121,121)" d=" M 578.3965152670139,346.00185952892 L 691.3702286904222,378.4370811335185 A 248,248 0 0,1 678.6579375921015,412.8712554685675 L 571.7091155294419,364.11622511657816 A 130.462331462574,130.462331462574 0 0 0 578.3965152670139,346.00185952892 Z "/><path class="wedge" fill="rgb(213,130,130)" d=" M 453,440.462331462574 L 453,558 A 248,248 0 1,1 625.9653864893353,132.27275088891165 L 543.989788644048,216.5051964376521 A 130.462331462574,130.462331462574 0 1 0 453,440.462331462574 Z "/><path class="wedge" fill="rgb(213,130,130)" d=" M 544.5481205710714,188.53409572329434 L 602.2678006696947,111.95171375840607 A 248,248 0 0,1 625.9653864893353,132.27275088891165 L 559.0821957977873,200.99728436147495 A 152.10201932207622,152.10201932207622 0 0 0 544.5481205710714,188.53409572329434 Z "/><path class="wedge" fill="rgb(216,140,140)" d=" M 453,462.1020193220762 L 453,558 A 248,248 0 0,1 230.23230075616223,201.0112291398465 L 316.3733189729005,243.15559624491772 A 152.10201932207622,152.10201932207622 0 0 0 453,462.1020193220762 Z "/><path class="wedge" fill="rgb(216,140,140)" d=" M 301.06277692340086,236.00074040265423 L 230.0381269827063,201.40900967105878 A 248,248 0 0,1 230.23230075616223,201.0112291398465 L 301.19509651479086,235.72967311886958 A 168.99943839310126,168.99943839310126 0 0 0 301.06277692340086,236.00074040265423 Z "/><path class="wedge" fill="rgb(219,149,149)" d=" M 453,478.9994383931013 L 453,558 A 248,248 0 0,1 227.97580321518063,205.7497680513521 L 299.6574077359146,238.9587473722902 A 168.99943839310126,168.99943839310126 0 0 0 453,478.9994383931013 Z "/><path class="wedge" fill="rgb(219,149,149)" d=" M 273.830836481892,275.00470586446056 L 209.5993916548957,262.45902969823663 A 248,248 0 0,1 227.97580321518063,205.7497680513521 L 287.357862195207,233.26055804953097 A 182.55481304915364,182.55481304915364 0 0 0 273.830836481892,275.00470586446056 Z "/><path class="wedge" fill="rgb(223,159,159)" d=" M 453,492.5548130491536 L 453,558 A 248,248 0 0,1 361.8532910414204,540.6431820930763 L 385.90616768556805,479.77831850025586 A 182.55481304915364,182.55481304915364 0 0 0 453,492.5548130491536 Z "/><path class="wedge" fill="rgb(223,159,159)" d=" M 384.1699331599002,491.02399533628017 L 364.8601770610119,541.8089118482803 A 248,248 0 0,1 361.8532910414204,540.6431820930763 L 381.82179858454134,490.11365476271527 A 193.6679245221629,193.6679245221629 0 0 0 384.1699331599002,491.02399533628017 Z "/><path class="wedge" fill="rgb(226,168,168)" d=" M 453,503.66792452216293 L 453,558 A 248,248 0 0,1 393.9425766423245,550.8655657132258 L 406.880933026985,498.0965088731334 A 193.6679245221629,193.6679245221629 0 0 0 453,503.66792452216293 Z "/><path class="wedge" fill="rgb(226,168,168)" d=" M 441.0019037156992,512.5878755220895 L 438.3380997009548,557.5662106985137 A 248,248 0 0,1 393.9425766423245,550.8655657132258 L 404.6722500292649,507.1046174136137 A 202.94285309663147,202.94285309663147 0 0 0 441.0019037156992,512.5878755220895 Z "/><path class="wedge" fill="rgb(229,178,178)" d=" M 453,512.9428530966314 L 453,558 A 248,248 0 0,1 438.3380997009548,557.5662106985137 L 441.0019037156992,512.5878755220895 A 202.94285309663147,202.94285309663147 0 0 0 453,512.9428530966314 Z "/><path class="wedge" fill="url(#hiddenPattern)" d=" M 453,512.9428530966314 L 453,558 A 248,248 0 0,1 438.3380997009548,557.5662106985137 L 441.0019037156992,512.5878755220895 A 202.94285309663147,202.94285309663147 0 0 0 453,512.9428530966314 Z "/><path class="wedge" fill="rgb(223,160,159)" d=" M 406.880933026985,498.0965088731334 L 393.9425766423245,550.8655657132258 A 248,248 0 0,1 372.65083200867224,544.6231258915059 L 390.2538040243425,493.2216686947987 A 193.6679245221629,193.6679245221629 0 0 0 406.880933026985,498.0965088731334 Z "/><path class="wedge" fill="url(#hiddenPattern)" d=" M 406.880933026985,498.0965088731334 L 393.9425766423245,550.8655657132258 A 248,248 0 0,1 372.65083200867224,544.6231258915059 L 390.2538040243425,493.2216686947987 A 193.6679245221629,193.6679245221629 0 0 0 406.880933026985,498.0965088731334 Z "/><path class="wedge" fill="rgb(223,160,159)" d=" M 390.2538040243425,493.2216686947987 L 372.65083200867224,544.6231258915059 A 248,248 0 0,1 364.8601770610119,541.8089118482803 L 384.1699331599002,491.02399533628017 A 193.6679245221629,193.6679245221629 0 0 0 390.2538040243425,493.2216686947987 Z "/><path class="wedge" fill="url(#hiddenPattern)" d=" M 390.2538040243425,493.2216686947987 L 372.65083200867224,544.6231258915059 A 248,248 0 0,1 364.8601770610119,541.8089118482803 L 384.1699331599002,491.02399533628017 A 193.6679245221629,193.6679245221629 0 0 0 390.2538040243425,493.2216686947987 Z "/><path class="wedge" fill="rgb(223,161,159)" d=" M 385.90616768556805,479.77831850025586 L 361.8532910414204,540.6431820930763 A 248,248 0 0,1 298.1380438947998,503.70538080102745 L 339.00485707576183,452.5881031401076 A 182.55481304915364,182.55481304915364 0 0 0 385.90616768556805,479.77831850025586 Z "/><path class="wedge" fill="rgb(223,161,159)" d=" M 338.1366048422065,465.92839844475657 L 305.91254569172145,509.6729345332262 A 248,248 0 0,1 298.1380438947998,503.70538080102745 L 332.06534828090156,461.26822205044436 A 193.6679245221629,193.6679245221629 0 0 0 338.1366048422065,465.92839844475657 Z "/><path class="wedge" fill="rgb(223,161,159)" d=" M 381.82179858454134,490.11365476271527 L 361.8532910414204,540.6431820930763 A 248,248 0 0,1 305.91254569172145,509.6729345332262 L 338.1366048422065,465.92839844475657 A 193.6679245221629,193.6679245221629 0 0 0 381.82179858454134,490.11365476271527 Z "/><path class="wedge" fill="url(#hiddenPattern)" d=" M 381.82179858454134,490.11365476271527 L 361.8532910414204,540.6431820930763 A 248,248 0 0,1 305.91254569172145,509.6729345332262 L 338.1366048422065,465.92839844475657 A 193.6679245221629,193.6679245221629 0 0 0 381.82179858454134,490.11365476271527 Z "/><path class="wedge" fill="rgb(223,162,159)" d=" M 339.00485707576183,452.5881031401076 L 298.1380438947998,503.70538080102745 A 248,248 0 0,1 273.5833957399859,481.2123889086462 L 320.92998125564174,436.0308292295036 A 182.55481304915364,182.55481304915364 0 0 0 339.00485707576183,452.5881031401076 Z "/><path class="wedge" fill="rgb(223,162,159)" d=" M 315.09056501232965,445.9715144068923 L 276.4011132131057,484.1172972040104 A 248,248 0 0,1 273.5833957399859,481.2123889086462 L 312.8901557586646,443.70301617910843 A 193.6679245221629,193.6679245221629 0 0 0 315.09056501232965,445.9715144068923 Z "/><path class="wedge" fill="rgb(223,162,159)" d=" M 332.06534828090156,461.26822205044436 L 298.1380438947998,503.70538080102745 A 248,248 0 0,1 283.88059380914035,491.3908113705075 L 320.9314338975629,451.65154018353763 A 193.6679245221629,193.6679245221629 0 0 0 332.06534828090156,461.26822205044436 Z "/><path class="wedge" fill="url(#hiddenPattern)" d=" M 332.06534828090156,461.26822205044436 L 298.1380438947998,503.70538080102745 A 248,248 0 0,1 283.88059380914035,491.3908113705075 L 320.9314338975629,451.65154018353763 A 193.6679245221629,193.6679245221629 0 0 0 332.06534828090156,461.26822205044436 Z "/><path class="wedge" fill="rgb(226,172,168)" d=" M 320.9314338975629,451.65154018353763 L 283.88059380914035,491.3908113705075 A 248,248 0 0,1 276.4011132131057,484.1172972040104 L 315.09056501232965,445.9715144068923 A 193.6679245221629,193.6679245221629 0 0 0 320.9314338975629,451.65154018353763 Z "/><path class="wedge" fill="url(#hiddenPattern)" d=" M 320.9314338975629,451.65154018353763 L 283.88059380914035,491.3908113705075 A 248,248 0 0,1 276.4011132131057,484.1172972040104 L 315.09056501232965,445.9715144068923 A 193.6679245221629,193.6679245221629 0 0 0 320.9314338975629,451.65154018353763 Z "/><path class="wedge" fill="rgb(219,154,149)" d=" M 320.92998125564174,436.0308292295036 L 273.5833957399859,481.2123889086462 A 248,248 0 0,1 259.03822309694885,464.5407037016819 L 310.22316160799136,423.75866642235957 A 182.55481304915364,182.55481304915364 0 0 0 320.92998125564174,436.0308292295036 Z "/><path class="wedge" fill="url(#hiddenPattern)" d=" M 320.92998125564174,436.0308292295036 L 273.5833957399859,481.2123889086462 A 248,248 0 0,1 259.03822309694885,464.5407037016819 L 310.22316160799136,423.75866642235957 A 182.55481304915364,182.55481304915364 0 0 0 320.92998125564174,436.0308292295036 Z "/><path class="wedge" fill="rgb(223,163,159)" d=" M 310.22316160799136,423.75866642235957 L 259.03822309694885,464.5407037016819 A 248,248 0 0,1 246.98236045022009,448.06061058222565 L 301.34874325468553,411.6275361060089 A 182.55481304915364,182.55481304915364 0 0 0 310.22316160799136,423.75866642235957 Z "/><path class="wedge" fill="rgb(223,163,159)" d=" M 292.36473677613225,418.1830726025144 L 247.29972527556936,448.53301764667424 A 248,248 0 0,1 246.98236045022009,448.06061058222565 L 292.1169005380607,417.8141609262992 A 193.6679245221629,193.6679245221629 0 0 0 292.36473677613225,418.1830726025144 Z "/><path class="wedge" fill="rgb(223,163,159)" d=" M 301.5315533490133,430.68377959717446 L 259.03822309694885,464.5407037016819 A 248,248 0 0,1 248.61580981240567,450.4674439197969 L 293.39249226300643,419.6937029309692 A 193.6679245221629,193.6679245221629 0 0 0 301.5315533490133,430.68377959717446 Z "/><path class="wedge" fill="url(#hiddenPattern)" d=" M 301.5315533490133,430.68377959717446 L 259.03822309694885,464.5407037016819 A 248,248 0 0,1 248.61580981240567,450.4674439197969 L 293.39249226300643,419.6937029309692 A 193.6679245221629,193.6679245221629 0 0 0 301.5315533490133,430.68377959717446 Z "/><path class="wedge" fill="rgb(226,173,168)" d=" M 293.39249226300643,419.6937029309692 L 248.61580981240567,450.4674439197969 A 248,248 0 0,1 247.29972527556936,448.53301764667424 L 292.36473677613225,418.1830726025144 A 193.6679245221629,193.6679245221629 0 0 0 293.39249226300643,419.6937029309692 Z "/><path class="wedge" fill="url(#hiddenPattern)" d=" M 293.39249226300643,419.6937029309692 L 248.61580981240567,450.4674439197969 A 248,248 0 0,1 247.29972527556936,448.53301764667424 L 292.36473677613225,418.1830726025144 A 193.6679245221629,193.6679245221629 0 0 0 293.39249226300643,419.6937029309692 Z "/><path class="wedge" fill="rgb(219,155,149)" d=" M 301.34874325468553,411.6275361060089 L 246.98236045022009,448.06061058222565 A 248,248 0 0,1 236.50792132195934,430.97594748403935 L 293.6384235899501,399.0513769209397 A 182.55481304915364,182.55481304915364 0 0 0 301.34874325468553,411.6275361060089 Z "/><path class="wedge" fill="url(#hiddenPattern)" d=" M 301.34874325468553,411.6275361060089 L 246.98236045022009,448.06061058222565 A 248,248 0 0,1 236.50792132195934,430.97594748403935 L 293.6384235899501,399.0513769209397 A 182.55481304915364,182.55481304915364 0 0 0 301.34874325468553,411.6275361060089 Z "/><path class="wedge" fill="rgb(223,164,159)" d=" M 293.6384235899501,399.0513769209397 L 236.50792132195934,430.97594748403935 A 248,248 0 0,1 229.59696940983721,417.68048069697124 L 288.55121579031646,389.2644758978975 A 182.55481304915364,182.55481304915364 0 0 0 293.6384235899501,399.0513769209397 Z "/><path class="wedge" fill="rgb(223,164,159)" d=" M 293.6384235899501,399.0513769209397 L 236.50792132195934,430.97594748403935 A 248,248 0 0,1 229.59696940983721,417.68048069697124 L 288.55121579031646,389.2644758978975 A 182.55481304915364,182.55481304915364 0 0 0 293.6384235899501,399.0513769209397 Z "/><path class="wedge" fill="rgb(223,164,159)" d=" M 293.6384235899501,399.0513769209397 L 236.50792132195934,430.97594748403935 A 248,248 0 0,1 229.59696940983721,417.68048069697124 L 288.55121579031646,389.2644758978975 A 182.55481304915364,182.55481304915364 0 0 0 293.6384235899501,399.0513769209397 Z "/><path class="wedge" fill="rgb(223,164,159)" d=" M 288.55121579031646,389.2644758978975 L 229.59696940983721,417.68048069697124 A 248,248 0 0,1 223.64565195133005,404.3429013289795 L 284.1704027014699,379.446575462204 A 182.55481304915364,182.55481304915364 0 0 0 288.55121579031646,389.2644758978975 Z "/><path class="wedge" fill="rgb(223,164,159)" d=" M 288.55121579031646,389.2644758978975 L 229.59696940983721,417.68048069697124 A 248,248 0 0,1 223.64565195133005,404.3429013289795 L 284.1704027014699,379.446575462204 A 182.55481304915364,182.55481304915364 0 0 0 288.55121579031646,389.2644758978975 Z "/><path class="wedge" fill="rgb(219,158,149)" d=" M 284.1704027014699,379.446575462204 L 223.64565195133005,404.3429013289795 A 248,248 0 0,1 209.5993916548957,262.45902969823663 L 273.830836481892,275.00470586446056 A 182.55481304915364,182.55481304915364 0 0 0 284.1704027014699,379.446575462204 Z "/><path class="wedge" fill="url(#hiddenPattern)" d=" M 284.1704027014699,379.446575462204 L 223.64565195133005,404.3429013289795 A 248,248 0 0,1 209.5993916548957,262.45902969823663 L 273.830836481892,275.00470586446056 A 182.55481304915364,182.55481304915364 0 0 0 284.1704027014699,379.446575462204 Z "/><path class="wedge" fill="rgb(216,152,140)" d=" M 299.6574077359146,238.9587473722902 L 227.97580321518063,205.7497680513521 A 248,248 0 0,1 230.0381269827063,201.40900967105878 L 301.06277692340086,236.00074040265423 A 168.99943839310126,168.99943839310126 0 0 0 299.6574077359146,238.9587473722902 Z "/><path class="wedge" fill="url(#hiddenPattern)" d=" M 299.6574077359146,238.9587473722902 L 227.97580321518063,205.7497680513521 A 248,248 0 0,1 230.0381269827063,201.40900967105878 L 301.06277692340086,236.00074040265423 A 168.99943839310126,168.99943839310126 0 0 0 299.6574077359146,238.9587473722902 Z "/><path class="wedge" fill="rgb(216,152,140)" d=" M 316.3733189729005,243.15559624491772 L 230.23230075616223,201.0112291398465 A 248,248 0 0,1 423.0368877239785,63.81671075652895 L 434.6231859582381,159.0121958980536 A 152.10201932207622,152.10201932207622 0 0 0 316.3733189729005,243.15559624491772 Z "/><path class="wedge" fill="rgb(216,152,140)" d=" M 430.0176104612678,142.5705523264393 L 419.2742512058061,64.30389936291027 A 248,248 0 0,1 423.0368877239785,63.81671075652895 L 432.5816566646892,142.2385579680927 A 168.99943839310126,168.99943839310126 0 0 0 430.0176104612678,142.5705523264393 Z "/><path class="wedge" fill="rgb(219,161,149)" d=" M 301.19509651479086,235.72967311886958 L 230.23230075616223,201.0112291398465 A 248,248 0 0,1 373.30921010247795,75.15243666261085 L 398.69476315409736,149.9632809999716 A 168.99943839310126,168.99943839310126 0 0 0 301.19509651479086,235.72967311886958 Z "/><path class="wedge" fill="rgb(219,161,149)" d=" M 391.13154419872984,138.24856930966277 L 368.9519446108291,76.67635270873453 A 248,248 0 0,1 373.30921010247795,75.15243666261085 L 394.33896269563905,137.12680233828087 A 182.55481304915364,182.55481304915364 0 0 0 391.13154419872984,138.24856930966277 Z "/><path class="wedge" fill="rgb(223,169,159)" d=" M 289.01888835141574,229.7724810934179 L 230.23230075616223,201.0112291398465 A 248,248 0 0,1 333.48962608921806,92.69544292006876 L 365.02744368259175,150.04035164332265 A 182.55481304915364,182.55481304915364 0 0 0 289.01888835141574,229.7724810934179 Z "/><path class="wedge" fill="rgb(223,169,159)" d=" M 354.4392341057669,143.28755170934485 L 326.78875463204236,96.5176317756682 A 248,248 0 0,1 333.48962608921806,92.69544292006876 L 359.67207228157747,140.30273161742676 A 193.6679245221629,193.6679245221629 0 0 0 354.4392341057669,143.28755170934485 Z "/><path class="wedge" fill="rgb(226,178,168)" d=" M 279.0364598260828,224.8885925455342 L 230.23230075616223,201.0112291398465 A 248,248 0 0,1 303.7321993303053,111.95171375840613 L 336.4339308319045,155.34032035652936 A 193.6679245221629,193.6679245221629 0 0 0 279.0364598260828,224.8885925455342 Z "/><path class="wedge" fill="rgb(229,186,178)" d=" M 270.7051916842066,220.81253179897357 L 230.23230075616223,201.0112291398465 A 248,248 0 0,1 254.51487453151995,161.3135683131721 L 290.5760578233218,188.32722313192644 A 202.94285309663147,202.94285309663147 0 0 0 270.7051916842066,220.81253179897357 Z "/><path class="wedge" fill="rgb(229,187,178)" d=" M 290.5760578233218,188.32722313192644 L 254.51487453151995,161.3135683131721 A 248,248 0 0,1 279.3109882771477,132.97986779256183 L 310.8671629412504,165.14124723499836 A 202.94285309663147,202.94285309663147 0 0 0 290.5760578233218,188.32722313192644 Z "/><path class="wedge" fill="rgb(229,187,178)" d=" M 310.8671629412504,165.14124723499836 L 279.3109882771477,132.97986779256183 A 248,248 0 0,1 303.7321993303053,111.95171375840613 L 330.85147845416486,147.93353120658304 A 202.94285309663147,202.94285309663147 0 0 0 310.8671629412504,165.14124723499836 Z "/><path class="wedge" fill="rgb(226,180,168)" d=" M 336.4339308319045,155.34032035652936 L 303.7321993303053,111.95171375840613 A 248,248 0 0,1 326.78875463204236,96.5176317756682 L 354.4392341057669,143.28755170934485 A 193.6679245221629,193.6679245221629 0 0 0 336.4339308319045,155.34032035652936 Z "/><path class="wedge" fill="rgb(219,164,149)" d=" M 365.02744368259175,150.04035164332265 L 333.48962608921806,92.69544292006876 A 248,248 0 0,1 357.1095315308394,81.28835172478662 L 382.4142478040993,141.6434992215913 A 182.55481304915364,182.55481304915364 0 0 0 365.02744368259175,150.04035164332265 Z "/><path class="wedge" fill="url(#hiddenPattern)" d=" M 365.02744368259175,150.04035164332265 L 333.48962608921806,92.69544292006876 A 248,248 0 0,1 357.1095315308394,81.28835172478662 L 382.4142478040993,141.6434992215913 A 182.55481304915364,182.55481304915364 0 0 0 365.02744368259175,150.04035164332265 Z "/><path class="wedge" fill="rgb(219,165,149)" d=" M 382.4142478040993,141.6434992215913 L 357.1095315308394,81.28835172478662 A 248,248 0 0,1 368.9519446108291,76.67635270873453 L 391.13154419872984,138.24856930966277 A 182.55481304915364,182.55481304915364 0 0 0 382.4142478040993,141.6434992215913 Z "/><path class="wedge" fill="url(#hiddenPattern)" d=" M 382.4142478040993,141.6434992215913 L 357.1095315308394,81.28835172478662 A 248,248 0 0,1 368.9519446108291,76.67635270873453 L 391.13154419872984,138.24856930966277 A 182.55481304915364,182.55481304915364 0 0 0 382.4142478040993,141.6434992215913 Z "/><path class="wedge" fill="rgb(219,165,149)" d=" M 398.69476315409736,149.9632809999716 L 373.30921010247795,75.15243666261085 A 248,248 0 0,1 419.2742512058061,64.30389936291027 L 430.0176104612678,142.5705523264393 A 168.99943839310126,168.99943839310126 0 0 0 398.69476315409736,149.9632809999716 Z "/><path class="wedge" fill="rgb(219,165,149)" d=" M 426.00862425778985,129.45159817114342 L 416.33232155174255,64.72570180058574 A 248,248 0 0,1 419.2742512058061,64.30389936291027 L 428.1742025561823,129.14110597294373 A 182.55481304915364,182.55481304915364 0 0 0 426.00862425778985,129.45159817114342 Z "/><path class="wedge" fill="rgb(219,166,149)" d=" M 394.33896269563905,137.12680233828087 L 373.30921010247795,75.15243666261085 A 248,248 0 0,1 416.33232155174255,64.72570180058574 L 426.00862425778985,129.45159817114342 A 182.55481304915364,182.55481304915364 0 0 0 394.33896269563905,137.12680233828087 Z "/><path class="wedge" fill="url(#hiddenPattern)" d=" M 394.33896269563905,137.12680233828087 L 373.30921010247795,75.15243666261085 A 248,248 0 0,1 416.33232155174255,64.72570180058574 L 426.00862425778985,129.45159817114342 A 182.55481304915364,182.55481304915364 0 0 0 394.33896269563905,137.12680233828087 Z "/><path class="wedge" fill="rgb(216,158,140)" d=" M 434.6231859582381,159.0121958980536 L 423.0368877239785,63.81671075652895 A 248,248 0 0,1 555.8424856480165,84.328949251931 L 516.0747973353425,171.59265112372566 A 152.10201932207622,152.10201932207622 0 0 0 434.6231859582381,159.0121958980536 Z "/><path class="wedge" fill="rgb(216,158,140)" d=" M 516.3522502858406,153.32421195058936 L 545.9669247441109,80.08447006862974 A 248,248 0 0,1 555.8424856480165,84.328949251931 L 523.0819448284893,156.21660952417454 A 168.99943839310126,168.99943839310126 0 0 0 516.3522502858406,153.32421195058936 Z "/><path class="wedge" fill="rgb(219,166,149)" d=" M 432.5816566646892,142.2385579680927 L 423.0368877239785,63.81671075652895 A 248,248 0 0,1 453.0632347187441,62.000008061753476 L 453.0430912578819,141.0005671005754 A 168.99943839310126,168.99943839310126 0 0 0 432.5816566646892,142.2385579680927 Z "/><path class="wedge" fill="rgb(219,166,149)" d=" M 452.0225052756221,127.44780398068269 L 451.67207723753387,62.00355522480382 A 248,248 0 0,1 453.0632347187441,62.000008061753476 L 453.0465475897522,127.44519288516852 A 182.55481304915364,182.55481304915364 0 0 0 452.0225052756221,127.44780398068269 Z "/><path class="wedge" fill="rgb(219,166,149)" d=" M 430.94390983903264,128.7824824852114 L 423.0368877239785,63.81671075652895 A 248,248 0 0,1 443.13798483645445,62.19616496729918 L 445.7404905868186,127.58958557557256 A 182.55481304915364,182.55481304915364 0 0 0 430.94390983903264,128.7824824852114 Z "/><path class="wedge" fill="url(#hiddenPattern)" d=" M 430.94390983903264,128.7824824852114 L 423.0368877239785,63.81671075652895 A 248,248 0 0,1 443.13798483645445,62.19616496729918 L 445.7404905868186,127.58958557557256 A 182.55481304915364,182.55481304915364 0 0 0 430.94390983903264,128.7824824852114 Z "/><path class="wedge" fill="rgb(219,167,149)" d=" M 445.7404905868186,127.58958557557256 L 443.13798483645445,62.19616496729918 A 248,248 0 0,1 451.67207723753387,62.00355522480382 L 452.0225052756221,127.44780398068269 A 182.55481304915364,182.55481304915364 0 0 0 445.7404905868186,127.58958557557256 Z "/><path class="wedge" fill="url(#hiddenPattern)" d=" M 445.7404905868186,127.58958557557256 L 443.13798483645445,62.19616496729918 A 248,248 0 0,1 451.67207723753387,62.00355522480382 L 452.0225052756221,127.44780398068269 A 182.55481304915364,182.55481304915364 0 0 0 445.7404905868186,127.58958557557256 Z "/><path class="wedge" fill="rgb(219,167,149)" d=" M 453.0430912578819,141.0005671005754 L 453.0632347187441,62.000008061753476 A 248,248 0 0,1 481.89571868161363,63.68914469339148 L 472.6909686659586,142.15162815749488 A 168.99943839310126,168.99943839310126 0 0 0 453.0430912578819,141.0005671005754 Z "/><path class="wedge" fill="rgb(219,167,149)" d=" M 473.20671071328997,128.56695833018492 L 480.4507375247708,63.523922034315575 A 248,248 0 0,1 481.89571868161363,63.68914469339148 L 474.27037307194723,128.68858007066513 A 182.55481304915364,182.55481304915364 0 0 0 473.20671071328997,128.56695833018492 Z "/><path class="wedge" fill="rgb(223,175,159)" d=" M 453.0465475897522,127.44519288516852 L 453.0632347187441,62.000008061753476 A 248,248 0 0,1 468.5455425791612,62.487705141907156 L 464.44320007776787,127.80419066457205 A 182.55481304915364,182.55481304915364 0 0 0 453.0465475897522,127.44519288516852 Z "/><path class="wedge" fill="rgb(223,175,159)" d=" M 461.78683567173584,116.53151029792966 L 464.2519161444368,62.25538475462568 A 248,248 0 0,1 468.5455425791612,62.487705141907156 L 465.1398103503107,116.71293371417559 A 193.6679245221629,193.6679245221629 0 0 0 461.78683567173584,116.53151029792966 Z "/><path class="wedge" fill="rgb(223,175,159)" d=" M 453.04938119651985,116.33208177341396 L 453.0632347187441,62.000008061753476 A 248,248 0 0,1 464.2519161444368,62.25538475462568 L 461.78683567173584,116.53151029792966 A 193.6679245221629,193.6679245221629 0 0 0 453.04938119651985,116.33208177341396 Z "/><path class="wedge" fill="url(#hiddenPattern)" d=" M 453.04938119651985,116.33208177341396 L 453.0632347187441,62.000008061753476 A 248,248 0 0,1 464.2519161444368,62.25538475462568 L 461.78683567173584,116.53151029792966 A 193.6679245221629,193.6679245221629 0 0 0 453.04938119651985,116.33208177341396 Z "/><path class="wedge" fill="rgb(219,167,149)" d=" M 464.44320007776787,127.80419066457205 L 468.5455425791612,62.487705141907156 A 248,248 0 0,1 480.4507375247708,63.523922034315575 L 473.20671071328997,128.56695833018492 A 182.55481304915364,182.55481304915364 0 0 0 464.44320007776787,127.80419066457205 Z "/><path class="wedge" fill="url(#hiddenPattern)" d=" M 464.44320007776787,127.80419066457205 L 468.5455425791612,62.487705141907156 A 248,248 0 0,1 480.4507375247708,63.523922034315575 L 473.20671071328997,128.56695833018492 A 182.55481304915364,182.55481304915364 0 0 0 464.44320007776787,127.80419066457205 Z "/><path class="wedge" fill="rgb(219,167,149)" d=" M 472.6909686659586,142.15162815749488 L 481.89571868161363,63.68914469339148 A 248,248 0 0,1 502.6182867635454,67.01435100267636 L 486.81234918172186,144.41758783011724 A 168.99943839310126,168.99943839310126 0 0 0 472.6909686659586,142.15162815749488 Z "/><path class="wedge" fill="rgb(219,167,149)" d=" M 488.47485352078655,130.9251705708193 L 501.1924498522328,66.72754414599251 A 248,248 0 0,1 502.6182867635454,67.01435100267636 L 489.52442364491264,131.13629142607385 A 182.55481304915364,182.55481304915364 0 0 0 488.47485352078655,130.9251705708193 Z "/><path class="wedge" fill="rgb(223,175,159)" d=" M 474.27037307194723,128.68858007066513 L 481.89571868161363,63.68914469339148 A 248,248 0 0,1 496.3449528405505,65.81725068455296 L 484.90657162270594,130.2550961648799 A 182.55481304915364,182.55481304915364 0 0 0 474.27037307194723,128.68858007066513 Z "/><path class="wedge" fill="rgb(223,175,159)" d=" M 484.31770028106894,118.88101444956516 L 493.1036448801117,65.26402457478818 A 248,248 0 0,1 496.3449528405505,65.81725068455296 L 486.84889941588887,119.31303925791039 A 193.6679245221629,193.6679245221629 0 0 0 484.31770028106894,118.88101444956516 Z "/><path class="wedge" fill="rgb(223,175,159)" d=" M 475.56521719614676,117.65116074794497 L 481.89571868161363,63.68914469339148 A 248,248 0 0,1 493.1036448801117,65.26402457478818 L 484.31770028106894,118.88101444956516 A 193.6679245221629,193.6679245221629 0 0 0 475.56521719614676,117.65116074794497 Z "/><path class="wedge" fill="url(#hiddenPattern)" d=" M 475.56521719614676,117.65116074794497 L 481.89571868161363,63.68914469339148 A 248,248 0 0,1 493.1036448801117,65.26402457478818 L 484.31770028106894,118.88101444956516 A 193.6679245221629,193.6679245221629 0 0 0 475.56521719614676,117.65116074794497 Z "/><path class="wedge" fill="rgb(219,168,149)" d=" M 484.90657162270594,130.2550961648799 L 496.3449528405505,65.81725068455296 A 248,248 0 0,1 501.1924498522328,66.72754414599251 L 488.47485352078655,130.9251705708193 A 182.55481304915364,182.55481304915364 0 0 0 484.90657162270594,130.2550961648799 Z "/><path class="wedge" fill="url(#hiddenPattern)" d=" M 484.90657162270594,130.2550961648799 L 496.3449528405505,65.81725068455296 A 248,248 0 0,1 501.1924498522328,66.72754414599251 L 488.47485352078655,130.9251705708193 A 182.55481304915364,182.55481304915364 0 0 0 484.90657162270594,130.2550961648799 Z "/><path class="wedge" fill="rgb(216,161,140)" d=" M 486.81234918172186,144.41758783011724 L 502.6182867635454,67.01435100267636 A 248,248 0 0,1 545.9669247441109,80.08447006862974 L 516.3522502858406,153.32421195058936 A 168.99943839310126,168.99943839310126 0 0 0 486.81234918172186,144.41758783011724 Z "/><path class="wedge" fill="url(#hiddenPattern)" d=" M 486.81234918172186,144.41758783011724 L 502.6182867635454,67.01435100267636 A 248,248 0 0,1 545.9669247441109,80.08447006862974 L 516.3522502858406,153.32421195058936 A 168.99943839310126,168.99943839310126 0 0 0 486.81234918172186,144.41758783011724 Z "/><path class="wedge" fill="rgb(216,161,140)" d=" M 516.0747973353425,171.59265112372566 L 555.8424856480165,84.328949251931 A 248,248 0 0,1 584.9343937020415,100.00639114850492 L 533.9172891133642,181.20785503611847 A 152.10201932207622,152.10201932207622 0 0 0 516.0747973353425,171.59265112372566 Z "/><path class="wedge" fill="rgb(216,161,140)" d=" M 542.6510513573614,166.73975021764284 L 584.5593764572725,99.77124253286934 A 248,248 0 0,1 584.9343937020415,100.00639114850492 L 542.9066066144328,166.8999920885353 A 168.99943839310126,168.99943839310126 0 0 0 542.6510513573614,166.73975021764284 Z "/><path class="wedge" fill="rgb(216,161,140)" d=" M 523.0819448284893,156.21660952417454 L 555.8424856480165,84.328949251931 A 248,248 0 0,1 574.9407551613276,94.04988485605026 L 536.0964481431251,162.84093475704412 A 168.99943839310126,168.99943839310126 0 0 0 523.0819448284893,156.21660952417454 Z "/><path class="wedge" fill="url(#hiddenPattern)" d=" M 523.0819448284893,156.21660952417454 L 555.8424856480165,84.328949251931 A 248,248 0 0,1 574.9407551613276,94.04988485605026 L 536.0964481431251,162.84093475704412 A 168.99943839310126,168.99943839310126 0 0 0 523.0819448284893,156.21660952417454 Z "/><path class="wedge" fill="rgb(216,162,140)" d=" M 536.0964481431251,162.84093475704412 L 574.9407551613276,94.04988485605026 A 248,248 0 0,1 584.5593764572725,99.77124253286934 L 542.6510513573614,166.73975021764284 A 168.99943839310126,168.99943839310126 0 0 0 536.0964481431251,162.84093475704412 Z "/><path class="wedge" fill="url(#hiddenPattern)" d=" M 536.0964481431251,162.84093475704412 L 574.9407551613276,94.04988485605026 A 248,248 0 0,1 584.5593764572725,99.77124253286934 L 542.6510513573614,166.73975021764284 A 168.99943839310126,168.99943839310126 0 0 0 536.0964481431251,162.84093475704412 Z "/><path class="wedge" fill="rgb(213,155,130)" d=" M 533.9172891133642,181.20785503611847 L 584.9343937020415,100.00639114850492 A 248,248 0 0,1 602.2678006696947,111.95171375840607 L 544.5481205710714,188.53409572329434 A 152.10201932207622,152.10201932207622 0 0 0 533.9172891133642,181.20785503611847 Z "/><path class="wedge" fill="url(#hiddenPattern)" d=" M 533.9172891133642,181.20785503611847 L 584.9343937020415,100.00639114850492 A 248,248 0 0,1 602.2678006696947,111.95171375840607 L 544.5481205710714,188.53409572329434 A 152.10201932207622,152.10201932207622 0 0 0 533.9172891133642,181.20785503611847 Z "/><path class="wedge" fill="rgb(213,156,130)" d=" M 543.989788644048,216.5051964376521 L 625.9653864893353,132.27275088891165 A 248,248 0 0,1 693.553579736601,249.6843695555892 L 579.5450840891338,278.2704928572063 A 130.462331462574,130.462331462574 0 0 0 543.989788644048,216.5051964376521 Z "/><path class="wedge" fill="rgb(213,156,130)" d=" M 600.0909976940538,271.2796864782696 L 692.8296064096423,246.86712512964374 A 248,248 0 0,1 693.553579736601,249.6843695555892 L 600.5350211011737,273.0075435996815 A 152.10201932207622,152.10201932207622 0 0 0 600.0909976940538,271.2796864782696 Z "/><path class="wedge" fill="rgb(216,164,140)" d=" M 559.0821957977873,200.99728436147495 L 625.9653864893353,132.27275088891165 A 248,248 0 0,1 688.1606799480701,231.23798754246218 L 597.2274769566691,261.6941083037822 A 152.10201932207622,152.10201932207622 0 0 0 559.0821957977873,200.99728436147495 Z "/><path class="wedge" fill="rgb(216,164,140)" d=" M 611.5032264644857,251.36948424641326 L 685.5972236177389,223.96203416328592 A 248,248 0 0,1 688.1606799480701,231.23798754246218 L 613.2500921103374,256.32767793534543 A 168.99943839310126,168.99943839310126 0 0 0 611.5032264644857,251.36948424641326 Z "/><path class="wedge" fill="rgb(219,171,149)" d=" M 570.8671499118684,188.88788190756154 L 625.9653864893353,132.27275088891165 A 248,248 0 0,1 650.6861345154637,160.25290580337122 L 587.7130875452275,207.9549402410117 A 168.99943839310126,168.99943839310126 0 0 0 570.8671499118684,188.88788190756154 Z "/><path class="wedge" fill="rgb(219,171,149)" d=" M 597.3865665746255,198.291543918096 L 649.1485863474096,158.24449903244755 A 248,248 0 0,1 650.6861345154637,160.25290580337122 L 598.5183682616141,199.76994844467916 A 182.55481304915364,182.55481304915364 0 0 0 597.3865665746255,198.291543918096 Z "/><path class="wedge" fill="rgb(223,179,159)" d=" M 580.3212249779646,179.17352929348752 L 625.9653864893353,132.27275088891165 A 248,248 0 0,1 649.1485863474096,158.24449903244755 L 597.3865665746255,198.291543918096 A 182.55481304915364,182.55481304915364 0 0 0 580.3212249779646,179.17352929348752 Z "/><path class="wedge" fill="url(#hiddenPattern)" d=" M 580.3212249779646,179.17352929348752 L 625.9653864893353,132.27275088891165 A 248,248 0 0,1 649.1485863474096,158.24449903244755 L 597.3865665746255,198.291543918096 A 182.55481304915364,182.55481304915364 0 0 0 580.3212249779646,179.17352929348752 Z "/><path class="wedge" fill="rgb(216,164,140)" d=" M 587.7130875452275,207.9549402410117 L 650.6861345154637,160.25290580337122 A 248,248 0 0,1 669.5229179308963,189.07925731831466 L 600.549401328859,227.59863869644545 A 168.99943839310126,168.99943839310126 0 0 0 587.7130875452275,207.9549402410117 Z "/><path class="wedge" fill="url(#hiddenPattern)" d=" M 587.7130875452275,207.9549402410117 L 650.6861345154637,160.25290580337122 A 248,248 0 0,1 669.5229179308963,189.07925731831466 L 600.549401328859,227.59863869644545 A 168.99943839310126,168.99943839310126 0 0 0 587.7130875452275,207.9549402410117 Z "/><path class="wedge" fill="rgb(219,173,149)" d=" M 600.549401328859,227.59863869644545 L 669.5229179308963,189.07925731831466 A 248,248 0 0,1 680.179913705822,210.53499706622796 L 607.8116041551497,242.21963856622722 A 168.99943839310126,168.99943839310126 0 0 0 600.549401328859,227.59863869644545 Z "/><path class="wedge" fill="rgb(219,173,149)" d=" M 619.1472341587037,234.3603520048889 L 678.7103682074054,207.2438338410902 A 248,248 0 0,1 680.179913705822,210.53499706622796 L 620.2289785285855,236.7830039697247 A 182.55481304915364,182.55481304915364 0 0 0 619.1472341587037,234.3603520048889 Z "/><path class="wedge" fill="rgb(219,173,149)" d=" M 612.3842774344032,220.9892597821779 L 669.5229179308963,189.07925731831466 A 248,248 0 0,1 678.7103682074054,207.2438338410902 L 619.1472341587037,234.3603520048889 A 182.55481304915364,182.55481304915364 0 0 0 612.3842774344032,220.9892597821779 Z "/><path class="wedge" fill="url(#hiddenPattern)" d=" M 612.3842774344032,220.9892597821779 L 669.5229179308963,189.07925731831466 A 248,248 0 0,1 678.7103682074054,207.2438338410902 L 619.1472341587037,234.3603520048889 A 182.55481304915364,182.55481304915364 0 0 0 612.3842774344032,220.9892597821779 Z "/><path class="wedge" fill="rgb(216,166,140)" d=" M 607.8116041551497,242.21963856622722 L 680.179913705822,210.53499706622796 A 248,248 0 0,1 685.5972236177389,223.96203416328592 L 611.5032264644857,251.36948424641326 A 168.99943839310126,168.99943839310126 0 0 0 607.8116041551497,242.21963856622722 Z "/><path class="wedge" fill="url(#hiddenPattern)" d=" M 607.8116041551497,242.21963856622722 L 680.179913705822,210.53499706622796 A 248,248 0 0,1 685.5972236177389,223.96203416328592 L 611.5032264644857,251.36948424641326 A 168.99943839310126,168.99943839310126 0 0 0 607.8116041551497,242.21963856622722 Z "/><path class="wedge" fill="rgb(213,159,130)" d=" M 597.2274769566691,261.6941083037822 L 688.1606799480701,231.23798754246218 A 248,248 0 0,1 692.8296064096423,246.86712512964374 L 600.0909976940538,271.2796864782696 A 152.10201932207622,152.10201932207622 0 0 0 597.2274769566691,261.6941083037822 Z "/><path class="wedge" fill="url(#hiddenPattern)" d=" M 597.2274769566691,261.6941083037822 L 688.1606799480701,231.23798754246218 A 248,248 0 0,1 692.8296064096423,246.86712512964374 L 600.0909976940538,271.2796864782696 A 152.10201932207622,152.10201932207622 0 0 0 597.2274769566691,261.6941083037822 Z "/><path class="wedge" fill="rgb(213,160,130)" d=" M 579.5450840891338,278.2704928572063 L 693.553579736601,249.6843695555892 A 248,248 0 0,1 696.4248205654011,357.4168401804915 L 581.0555226887942,334.9439980666741 A 130.462331462574,130.462331462574 0 0 0 579.5450840891338,278.2704928572063 Z "/><path class="wedge" fill="rgb(213,160,130)" d=" M 602.8911704218204,335.8391430088157 L 697.3952449171472,352.13032473038453 A 248,248 0 0,1 696.4248205654011,357.4168401804915 L 602.2959950044822,339.08144008598754 A 152.10201932207622,152.10201932207622 0 0 0 602.8911704218204,335.8391430088157 Z "/><path class="wedge" fill="rgb(216,167,140)" d=" M 600.5350211011737,273.0075435996815 L 693.553579736601,249.6843695555892 A 248,248 0 0,1 699.2775381068111,280.82168229578383 L 604.0456083053047,292.1045119224501 A 152.10201932207622,152.10201932207622 0 0 0 600.5350211011737,273.0075435996815 Z "/><path class="wedge" fill="rgb(216,167,140)" d=" M 620.8205925221966,290.07366308920626 L 699.2700902513989,280.7588877166436 A 248,248 0 0,1 699.2775381068111,280.82168229578383 L 620.825667858414,290.11645441424184 A 168.99943839310126,168.99943839310126 0 0 0 620.8205925221966,290.07366308920626 Z "/><path class="wedge" fill="rgb(219,174,149)" d=" M 616.9250801569987,268.8979529377772 L 693.553579736601,249.6843695555892 A 248,248 0 0,1 698.7175490873396,276.4308762326024 L 620.4440637060068,287.12434248371494 A 168.99943839310126,168.99943839310126 0 0 0 616.9250801569987,268.8979529377772 Z "/><path class="wedge" fill="rgb(223,182,159)" d=" M 630.073442649677,265.6011748398337 L 693.553579736601,249.6843695555892 A 248,248 0 0,1 698.6224291872899,275.74182900190436 L 633.8046638748576,284.782282250148 A 182.55481304915364,182.55481304915364 0 0 0 630.073442649677,265.6011748398337 Z "/><path class="wedge" fill="rgb(223,182,159)" d=" M 644.082925690476,278.4630296589829 L 697.6897992435244,269.6155704984736 A 248,248 0 0,1 698.6224291872899,275.74182900190436 L 644.8112341806225,283.2471416325543 A 193.6679245221629,193.6679245221629 0 0 0 644.082925690476,278.4630296589829 Z "/><path class="wedge" fill="rgb(223,182,159)" d=" M 640.8528730805006,262.89837514348864 L 693.553579736601,249.6843695555892 A 248,248 0 0,1 697.6897992435244,269.6155704984736 L 644.082925690476,278.4630296589829 A 193.6679245221629,193.6679245221629 0 0 0 640.8528730805006,262.89837514348864 Z "/><path class="wedge" fill="url(#hiddenPattern)" d=" M 640.8528730805006,262.89837514348864 L 693.553579736601,249.6843695555892 A 248,248 0 0,1 697.6897992435244,269.6155704984736 L 644.082925690476,278.4630296589829 A 193.6679245221629,193.6679245221629 0 0 0 640.8528730805006,262.89837514348864 Z "/><path class="wedge" fill="rgb(219,175,149)" d=" M 633.8046638748576,284.782282250148 L 698.6224291872899,275.74182900190436 A 248,248 0 0,1 698.7175490873396,276.4308762326024 L 633.8746824053851,285.28949550975335 A 182.55481304915364,182.55481304915364 0 0 0 633.8046638748576,284.782282250148 Z "/><path class="wedge" fill="url(#hiddenPattern)" d=" M 633.8046638748576,284.782282250148 L 698.6224291872899,275.74182900190436 A 248,248 0 0,1 698.7175490873396,276.4308762326024 L 633.8746824053851,285.28949550975335 A 182.55481304915364,182.55481304915364 0 0 0 633.8046638748576,284.782282250148 Z "/><path class="wedge" fill="rgb(216,168,140)" d=" M 620.4440637060068,287.12434248371494 L 698.7175490873396,276.4308762326024 A 248,248 0 0,1 699.2700902513989,280.7588877166436 L 620.8205925221966,290.07366308920626 A 168.99943839310126,168.99943839310126 0 0 0 620.4440637060068,287.12434248371494 Z "/><path class="wedge" fill="url(#hiddenPattern)" d=" M 620.4440637060068,287.12434248371494 L 698.7175490873396,276.4308762326024 A 248,248 0 0,1 699.2700902513989,280.7588877166436 L 620.8205925221966,290.07366308920626 A 168.99943839310126,168.99943839310126 0 0 0 620.4440637060068,287.12434248371494 Z "/><path class="wedge" fill="rgb(213,160,130)" d=" M 604.0456083053047,292.1045119224501 L 699.2775381068111,280.82168229578383 A 248,248 0 0,1 700.7573626558155,299.03235440786364 L 604.9532062978286,303.27338289607735 A 152.10201932207622,152.10201932207622 0 0 0 604.0456083053047,292.1045119224501 Z "/><path class="wedge" fill="url(#hiddenPattern)" d=" M 604.0456083053047,292.1045119224501 L 699.2775381068111,280.82168229578383 A 248,248 0 0,1 700.7573626558155,299.03235440786364 L 604.9532062978286,303.27338289607735 A 152.10201932207622,152.10201932207622 0 0 0 604.0456083053047,292.1045119224501 Z "/><path class="wedge" fill="rgb(213,162,130)" d=" M 604.9532062978286,303.27338289607735 L 700.7573626558155,299.03235440786364 A 248,248 0 0,1 697.3952449171472,352.13032473038453 L 602.8911704218204,335.8391430088157 A 152.10201932207622,152.10201932207622 0 0 0 604.9532062978286,303.27338289607735 Z "/><path class="wedge" fill="url(#hiddenPattern)" d=" M 604.9532062978286,303.27338289607735 L 700.7573626558155,299.03235440786364 A 248,248 0 0,1 697.3952449171472,352.13032473038453 L 602.8911704218204,335.8391430088157 A 152.10201932207622,152.10201932207622 0 0 0 604.9532062978286,303.27338289607735 Z "/><path class="wedge" fill="rgb(210,155,121)" d=" M 581.0555226887942,334.9439980666741 L 696.4248205654011,357.4168401804915 A 248,248 0 0,1 692.4716890821919,374.4772062679675 L 578.9759470844491,343.91873651577555 A 130.462331462574,130.462331462574 0 0 0 581.0555226887942,334.9439980666741 Z "/><path class="wedge" fill="url(#hiddenPattern)" d=" M 581.0555226887942,334.9439980666741 L 696.4248205654011,357.4168401804915 A 248,248 0 0,1 692.4716890821919,374.4772062679675 L 578.9759470844491,343.91873651577555 A 130.462331462574,130.462331462574 0 0 0 581.0555226887942,334.9439980666741 Z "/><path class="wedge" fill="rgb(210,156,121)" d=" M 578.9759470844491,343.91873651577555 L 692.4716890821919,374.4772062679675 A 248,248 0 0,1 691.3702286904222,378.4370811335185 L 578.3965152670139,346.00185952892 A 130.462331462574,130.462331462574 0 0 0 578.9759470844491,343.91873651577555 Z "/><path class="wedge" fill="url(#hiddenPattern)" d=" M 578.9759470844491,343.91873651577555 L 692.4716890821919,374.4772062679675 A 248,248 0 0,1 691.3702286904222,378.4370811335185 L 578.3965152670139,346.00185952892 A 130.462331462574,130.462331462574 0 0 0 578.9759470844491,343.91873651577555 Z "/><path class="wedge" fill="rgb(210,158,121)" d=" M 545.6101916075872,352.2184425751419 L 678.6579375921015,412.8712554685675 A 248,248 0 0,1 596.706570814269,512.1198196733895 L 511.97728748383537,392.95012986194536 A 101.77939124923358,101.77939124923358 0 0 0 545.6101916075872,352.2184425751419 Z "/><path class="wedge" fill="rgb(210,158,121)" d=" M 529.3011815729529,415.8231998250941 L 598.0433455998807,511.16269012218334 A 248,248 0 0,1 596.706570814269,512.1198196733895 L 528.5979607859718,416.32670527977996 A 130.462331462574,130.462331462574 0 0 0 529.3011815729529,415.8231998250941 Z "/><path class="wedge" fill="rgb(213,164,130)" d=" M 571.7091155294419,364.11622511657816 L 678.6579375921015,412.8712554685675 A 248,248 0 0,1 634.0670660336401,479.46597770045 L 548.2517402654698,399.14889739671486 A 130.462331462574,130.462331462574 0 0 0 571.7091155294419,364.11622511657816 Z "/><path class="wedge" fill="rgb(213,164,130)" d=" M 564.1305459694322,413.8509799394746 L 634.1966436951772,479.32742339503966 A 248,248 0 0,1 634.0670660336401,479.46597770045 L 564.0510740985499,413.93595731704994 A 152.10201932207622,152.10201932207622 0 0 0 564.1305459694322,413.8509799394746 Z "/><path class="wedge" fill="rgb(216,171,140)" d=" M 591.3993063863454,373.0924422861544 L 678.6579375921015,412.8712554685675 A 248,248 0 0,1 635.4009124012415,478.029482993892 L 564.8691415420079,413.05493414925576 A 152.10201932207622,152.10201932207622 0 0 0 591.3993063863454,373.0924422861544 Z "/><path class="wedge" fill="rgb(216,171,140)" d=" M 579.4066346554989,422.17028524638266 L 638.4967430225698,474.60546263116146 A 248,248 0 0,1 635.4009124012415,478.029482993892 L 577.296982895964,424.50358169133426 A 168.99943839310126,168.99943839310126 0 0 0 579.4066346554989,422.17028524638266 Z "/><path class="wedge" fill="rgb(219,178,149)" d=" M 606.7744545242364,380.1015500039563 L 678.6579375921015,412.8712554685675 A 248,248 0 0,1 668.1212458562776,433.3971214463408 L 599.5942328069966,394.0888879990198 A 168.99943839310126,168.99943839310126 0 0 0 606.7744545242364,380.1015500039563 Z "/><path class="wedge" fill="rgb(219,178,149)" d=" M 606.7744545242364,380.1015500039563 L 678.6579375921015,412.8712554685675 A 248,248 0 0,1 668.1212458562776,433.3971214463408 L 599.5942328069966,394.0888879990198 A 168.99943839310126,168.99943839310126 0 0 0 606.7744545242364,380.1015500039563 Z "/><path class="wedge" fill="rgb(219,178,149)" d=" M 611.3756507345995,400.79324326073817 L 668.1527025014955,433.3422660984586 A 248,248 0 0,1 668.1212458562776,433.3971214463408 L 611.3524952427168,400.83362272758245 A 182.55481304915364,182.55481304915364 0 0 0 611.3756507345995,400.79324326073817 Z "/><path class="wedge" fill="rgb(223,185,159)" d=" M 619.1086395571922,385.7243661701454 L 678.6579375921015,412.8712554685675 A 248,248 0 0,1 668.6541050734185,432.46349237623014 L 611.7447372377437,400.14637079068206 A 182.55481304915364,182.55481304915364 0 0 0 619.1086395571922,385.7243661701454 Z "/><path class="wedge" fill="rgb(223,185,159)" d=" M 623.7219625260078,401.4400158573399 L 671.6167214365162,427.09282261671154 A 248,248 0 0,1 668.6541050734185,432.46349237623014 L 621.4083989687637,405.6340741864525 A 193.6679245221629,193.6679245221629 0 0 0 623.7219625260078,401.4400158573399 Z "/><path class="wedge" fill="rgb(223,185,159)" d=" M 629.2205823605404,390.3341231434946 L 678.6579375921015,412.8712554685675 A 248,248 0 0,1 671.6167214365162,427.09282261671154 L 623.7219625260078,401.4400158573399 A 193.6679245221629,193.6679245221629 0 0 0 629.2205823605404,390.3341231434946 Z "/><path class="wedge" fill="url(#hiddenPattern)" d=" M 629.2205823605404,390.3341231434946 L 678.6579375921015,412.8712554685675 A 248,248 0 0,1 671.6167214365162,427.09282261671154 L 623.7219625260078,401.4400158573399 A 193.6679245221629,193.6679245221629 0 0 0 629.2205823605404,390.3341231434946 Z "/><path class="wedge" fill="rgb(219,179,149)" d=" M 611.7447372377437,400.14637079068206 L 668.6541050734185,432.46349237623014 A 248,248 0 0,1 668.1527025014955,433.3422660984586 L 611.3756507345995,400.79324326073817 A 182.55481304915364,182.55481304915364 0 0 0 611.7447372377437,400.14637079068206 Z "/><path class="wedge" fill="url(#hiddenPattern)" d=" M 611.7447372377437,400.14637079068206 L 668.6541050734185,432.46349237623014 A 248,248 0 0,1 668.1527025014955,433.3422660984586 L 611.3756507345995,400.79324326073817 A 182.55481304915364,182.55481304915364 0 0 0 611.7447372377437,400.14637079068206 Z "/><path class="wedge" fill="rgb(216,173,140)" d=" M 599.5942328069966,394.0888879990198 L 668.1212458562776,433.3971214463408 A 248,248 0 0,1 638.4967430225698,474.60546263116146 L 579.4066346554989,422.17028524638266 A 168.99943839310126,168.99943839310126 0 0 0 599.5942328069966,394.0888879990198 Z "/><path class="wedge" fill="url(#hiddenPattern)" d=" M 599.5942328069966,394.0888879990198 L 668.1212458562776,433.3971214463408 A 248,248 0 0,1 638.4967430225698,474.60546263116146 L 579.4066346554989,422.17028524638266 A 168.99943839310126,168.99943839310126 0 0 0 599.5942328069966,394.0888879990198 Z "/><path class="wedge" fill="rgb(213,167,130)" d=" M 564.8691415420079,413.05493414925576 L 635.4009124012415,478.029482993892 A 248,248 0 0,1 634.1966436951772,479.32742339503966 L 564.1305459694322,413.8509799394746 A 152.10201932207622,152.10201932207622 0 0 0 564.8691415420079,413.05493414925576 Z "/><path class="wedge" fill="url(#hiddenPattern)" d=" M 564.8691415420079,413.05493414925576 L 635.4009124012415,478.029482993892 A 248,248 0 0,1 634.1966436951772,479.32742339503966 L 564.1305459694322,413.8509799394746 A 152.10201932207622,152.10201932207622 0 0 0 564.8691415420079,413.05493414925576 Z "/><path class="wedge" fill="rgb(213,167,130)" d=" M 548.2517402654698,399.14889739671486 L 634.0670660336401,479.46597770045 A 248,248 0 0,1 609.9764077283936,501.9958526028339 L 535.578661842201,411.000913555284 A 130.462331462574,130.462331462574 0 0 0 548.2517402654698,399.14889739671486 Z "/><path class="wedge" fill="rgb(213,167,130)" d=" M 549.4859414018027,427.5818327534536 L 610.3188414874257,501.71536744104327 A 248,248 0 0,1 609.9764077283936,501.9958526028339 L 549.2759217798961,427.7538583965917 A 152.10201932207622,152.10201932207622 0 0 0 549.4859414018027,427.5818327534536 Z "/><path class="wedge" fill="rgb(213,167,130)" d=" M 564.0510740985499,413.93595731704994 L 634.0670660336401,479.46597770045 A 248,248 0 0,1 618.4315312877814,494.7604082474918 L 554.4615724532854,423.3162547790915 A 152.10201932207622,152.10201932207622 0 0 0 564.0510740985499,413.93595731704994 Z "/><path class="wedge" fill="url(#hiddenPattern)" d=" M 564.0510740985499,413.93595731704994 L 634.0670660336401,479.46597770045 A 248,248 0 0,1 618.4315312877814,494.7604082474918 L 554.4615724532854,423.3162547790915 A 152.10201932207622,152.10201932207622 0 0 0 564.0510740985499,413.93595731704994 Z "/><path class="wedge" fill="rgb(213,167,130)" d=" M 554.4615724532854,423.3162547790915 L 618.4315312877814,494.7604082474918 A 248,248 0 0,1 610.3188414874257,501.71536744104327 L 549.4859414018027,427.5818327534536 A 152.10201932207622,152.10201932207622 0 0 0 554.4615724532854,423.3162547790915 Z "/><path class="wedge" fill="url(#hiddenPattern)" d=" M 554.4615724532854,423.3162547790915 L 618.4315312877814,494.7604082474918 A 248,248 0 0,1 610.3188414874257,501.71536744104327 L 549.4859414018027,427.5818327534536 A 152.10201932207622,152.10201932207622 0 0 0 554.4615724532854,423.3162547790915 Z "/><path class="wedge" fill="rgb(210,161,121)" d=" M 535.578661842201,411.000913555284 L 609.9764077283936,501.9958526028339 A 248,248 0 0,1 598.0433455998807,511.16269012218334 L 529.3011815729529,415.8231998250941 A 130.462331462574,130.462331462574 0 0 0 535.578661842201,411.000913555284 Z "/><path class="wedge" fill="url(#hiddenPattern)" d=" M 535.578661842201,411.000913555284 L 609.9764077283936,501.9958526028339 A 248,248 0 0,1 598.0433455998807,511.16269012218334 L 529.3011815729529,415.8231998250941 A 130.462331462574,130.462331462574 0 0 0 535.578661842201,411.000913555284 Z "/><path class="wedge" fill="rgb(210,161,121)" d=" M 511.97728748383537,392.95012986194536 L 596.706570814269,512.1198196733895 A 248,248 0 0,1 514.8171767734458,550.1720979959174 L 478.36981701914345,408.56681423014413 A 101.77939124923358,101.77939124923358 0 0 0 511.97728748383537,392.95012986194536 Z "/><path class="wedge" fill="rgb(210,161,121)" d=" M 485.583833317167,436.32780270791386 L 514.9396462723461,550.1405426404642 A 248,248 0 0,1 514.8171767734458,550.1720979959174 L 485.5194072834589,436.344402648408 A 130.462331462574,130.462331462574 0 0 0 485.583833317167,436.32780270791386 Z "/><path class="wedge" fill="rgb(213,168,130)" d=" M 528.5979607859718,416.32670527977996 L 596.706570814269,512.1198196733895 A 248,248 0 0,1 515.4905592235112,549.9977708395077 L 485.8736453657231,436.25269649009164 A 130.462331462574,130.462331462574 0 0 0 528.5979607859718,416.32670527977996 Z "/><path class="wedge" fill="rgb(213,168,130)" d=" M 491.5515152443509,457.1353287087021 L 515.8576518787306,549.9018874462898 A 248,248 0 0,1 515.4905592235112,549.9977708395077 L 491.32637196153973,457.1941353930888 A 152.10201932207622,152.10201932207622 0 0 0 491.5515152443509,457.1353287087021 Z "/><path class="wedge" fill="rgb(216,175,140)" d=" M 541.1373371399244,433.96303515055024 L 596.706570814269,512.1198196733895 A 248,248 0 0,1 518.1181063302585,549.2982077408044 L 492.937884948637,456.76508313520173 A 152.10201932207622,152.10201932207622 0 0 0 541.1373371399244,433.96303515055024 Z "/><path class="wedge" fill="rgb(216,175,140)" d=" M 499.9469541524326,472.3477553678923 L 521.8928007128725,548.2389179163144 A 248,248 0 0,1 518.1181063302585,549.2982077408044 L 497.37469112514486,473.0696077285146 A 168.99943839310126,168.99943839310126 0 0 0 499.9469541524326,472.3477553678923 Z "/><path class="wedge" fill="rgb(219,181,149)" d=" M 550.9287490363301,447.73441940692635 L 596.706570814269,512.1198196733895 A 248,248 0 0,1 563.3216302787307,532.110643357411 L 528.1786030633743,461.35715317956806 A 168.99943839310126,168.99943839310126 0 0 0 550.9287490363301,447.73441940692635 Z "/><path class="wedge" fill="rgb(219,181,149)" d=" M 550.9287490363301,447.73441940692635 L 596.706570814269,512.1198196733895 A 248,248 0 0,1 563.3216302787307,532.110643357411 L 528.1786030633743,461.35715317956806 A 168.99943839310126,168.99943839310126 0 0 0 550.9287490363301,447.73441940692635 Z "/><path class="wedge" fill="rgb(219,181,149)" d=" M 534.3336888761539,473.4352802218922 L 563.49149844028,532.0261893840941 A 248,248 0 0,1 563.3216302787307,532.110643357411 L 534.2086475435949,473.49744747717506 A 182.55481304915364,182.55481304915364 0 0 0 534.3336888761539,473.4352802218922 Z "/><path class="wedge" fill="rgb(223,188,159)" d=" M 558.7835732618299,458.7820398951785 L 596.706570814269,512.1198196733895 A 248,248 0 0,1 567.7729920958902,529.8434904320724 L 537.485331109505,471.8285778060499 A 182.55481304915364,182.55481304915364 0 0 0 558.7835732618299,458.7820398951785 Z "/><path class="wedge" fill="rgb(223,188,159)" d=" M 545.1140221839282,480.3592436758891 L 570.9559163345087,528.1522445488159 A 248,248 0 0,1 567.7729920958902,529.8434904320724 L 542.6284160097164,481.67996980519126 A 193.6679245221629,193.6679245221629 0 0 0 545.1140221839282,480.3592436758891 Z "/><path class="wedge" fill="rgb(223,188,159)" d=" M 565.2231988298254,467.83921766507734 L 596.706570814269,512.1198196733895 A 248,248 0 0,1 570.9559163345087,528.1522445488159 L 545.1140221839282,480.3592436758891 A 193.6679245221629,193.6679245221629 0 0 0 565.2231988298254,467.83921766507734 Z "/><path class="wedge" fill="url(#hiddenPattern)" d=" M 565.2231988298254,467.83921766507734 L 596.706570814269,512.1198196733895 A 248,248 0 0,1 570.9559163345087,528.1522445488159 L 545.1140221839282,480.3592436758891 A 193.6679245221629,193.6679245221629 0 0 0 565.2231988298254,467.83921766507734 Z "/><path class="wedge" fill="rgb(219,182,149)" d=" M 537.485331109505,471.8285778060499 L 567.7729920958902,529.8434904320724 A 248,248 0 0,1 563.49149844028,532.0261893840941 L 534.3336888761539,473.4352802218922 A 182.55481304915364,182.55481304915364 0 0 0 537.485331109505,471.8285778060499 Z "/><path class="wedge" fill="url(#hiddenPattern)" d=" M 537.485331109505,471.8285778060499 L 567.7729920958902,529.8434904320724 A 248,248 0 0,1 563.49149844028,532.0261893840941 L 534.3336888761539,473.4352802218922 A 182.55481304915364,182.55481304915364 0 0 0 537.485331109505,471.8285778060499 Z "/><path class="wedge" fill="rgb(219,182,149)" d=" M 528.1786030633743,461.35715317956806 L 563.3216302787307,532.110643357411 A 248,248 0 0,1 544.8519904035911,540.3632172437661 L 515.59247900603,466.98086427671154 A 168.99943839310126,168.99943839310126 0 0 0 528.1786030633743,461.35715317956806 Z "/><path class="wedge" fill="rgb(219,182,149)" d=" M 528.1786030633743,461.35715317956806 L 563.3216302787307,532.110643357411 A 248,248 0 0,1 544.8519904035911,540.3632172437661 L 515.59247900603,466.98086427671154 A 168.99943839310126,168.99943839310126 0 0 0 528.1786030633743,461.35715317956806 Z "/><path class="wedge" fill="url(#hiddenPattern)" d=" M 528.1786030633743,461.35715317956806 L 563.3216302787307,532.110643357411 A 248,248 0 0,1 544.8519904035911,540.3632172437661 L 515.59247900603,466.98086427671154 A 168.99943839310126,168.99943839310126 0 0 0 528.1786030633743,461.35715317956806 Z "/><path class="wedge" fill="rgb(216,176,140)" d=" M 515.59247900603,466.98086427671154 L 544.8519904035911,540.3632172437661 A 248,248 0 0,1 521.8928007128725,548.2389179163144 L 499.9469541524326,472.3477553678923 A 168.99943839310126,168.99943839310126 0 0 0 515.59247900603,466.98086427671154 Z "/><path class="wedge" fill="url(#hiddenPattern)" d=" M 515.59247900603,466.98086427671154 L 544.8519904035911,540.3632172437661 A 248,248 0 0,1 521.8928007128725,548.2389179163144 L 499.9469541524326,472.3477553678923 A 168.99943839310126,168.99943839310126 0 0 0 515.59247900603,466.98086427671154 Z "/><path class="wedge" fill="rgb(213,170,130)" d=" M 492.937884948637,456.76508313520173 L 518.1181063302585,549.2982077408044 A 248,248 0 0,1 515.8576518787306,549.9018874462898 L 491.5515152443509,457.1353287087021 A 152.10201932207622,152.10201932207622 0 0 0 492.937884948637,456.76508313520173 Z "/><path class="wedge" fill="url(#hiddenPattern)" d=" M 492.937884948637,456.76508313520173 L 518.1181063302585,549.2982077408044 A 248,248 0 0,1 515.8576518787306,549.9018874462898 L 491.5515152443509,457.1353287087021 A 152.10201932207622,152.10201932207622 0 0 0 492.937884948637,456.76508313520173 Z "/><path class="wedge" fill="rgb(210,164,121)" d=" M 485.8736453657231,436.25269649009164 L 515.4905592235112,549.9977708395077 A 248,248 0 0,1 514.9396462723461,550.1405426404642 L 485.583833317167,436.32780270791386 A 130.462331462574,130.462331462574 0 0 0 485.8736453657231,436.25269649009164 Z "/><path class="wedge" fill="url(#hiddenPattern)" d=" M 485.8736453657231,436.25269649009164 L 515.4905592235112,549.9977708395077 A 248,248 0 0,1 514.9396462723461,550.1405426404642 L 485.583833317167,436.32780270791386 A 130.462331462574,130.462331462574 0 0 0 485.8736453657231,436.25269649009164 Z "/><path class="wedge" fill="rgb(207,158,111)" d=" M 478.36981701914345,408.56681423014413 L 514.8171767734458,550.1720979959174 A 248,248 0 0,1 504.6610596517082,552.5595492155744 L 474.2017387203274,409.5466260518132 A 101.77939124923358,101.77939124923358 0 0 0 478.36981701914345,408.56681423014413 Z "/><path class="wedge" fill="url(#hiddenPattern)" d=" M 478.36981701914345,408.56681423014413 L 514.8171767734458,550.1720979959174 A 248,248 0 0,1 504.6610596517082,552.5595492155744 L 474.2017387203274,409.5466260518132 A 101.77939124923358,101.77939124923358 0 0 0 478.36981701914345,408.56681423014413 Z "/><path class="wedge" fill="rgb(111,207,207)" d=" M 457.12302051121435,371.86275698563804 L 469.49208204485734,557.4510279425521 A 248,248 0 0,1 466.9674783026763,557.6063600755527 L 456.49186957566906,371.90159001888816 A 62,62 0 0 0 457.12302051121435,371.86275698563804 Z "/><path class="wedge" fill="rgb(111,207,207)" d=" M 457.12302051121435,371.86275698563804 L 469.49208204485734,557.4510279425521 A 248,248 0 0,1 466.9674783026763,557.6063600755527 L 456.49186957566906,371.90159001888816 A 62,62 0 0 0 457.12302051121435,371.86275698563804 Z "/><rect fill="rgb(111,207,207)" x="1024.7" y="559.3666666666668" width="22" height="22"/><path class="line" d="M 468.22997820612835,557.5319126170217 L 470.76830790714973,598.7872313865253 A 289.3333333333333,289.3333333333333 0 0,0 579.1862776480335,570.3666666666668 L 752.6666666666666,570.3666666666668 L 896.2914713541667,570.3666666666668"/><text x="1017.3666666666667" y="570.3666666666668" style="font-color:black;font-weight:normal" text-anchor="end">other sequences&#160;&#160;&#160;0.2%</text><circle cx="453" cy="310" r="62"/><circle cx="453" cy="310" r="248"/><text x="453" y="310" text-anchor="middle" style="font-color:black;font-weight:bold" transform="rotate(360,453,310)">Root</text><rect fill="rgb(220,220,220)" x="1024.7" y="588.7" width="22" height="22"/><path class="line" d="M 459.98651205047713,557.9015704858857 L 461.4420353943266,609.5477310037786 A 299.6666666666667,299.6666666666667 0 0,0 529.6421627507411,599.7 L 741.6666666666666,599.7 L 920.1498697916667,599.7"/><text x="1017.3666666666667" y="599.7" style="font-color:black;font-weight:normal" text-anchor="end">[other Root]&#160;&#160;&#160;0.9%</text><path class="line" d=" M 457.12302051121435,371.86275698563804 A 62,62 0 1 0 453,372"/><line x1="469.49208204485734" y1="557.4510279425521" x2="457.12302051121435" y2="371.86275698563804"/><text x="453" y="236.06618262522994" text-anchor="middle" style="font-color:black;font-weight:normal" transform="rotate(358.09349890430974,453,310)">Bacteria</text><path class="line" d=" M 545.6101916075872,352.2184425751419 A 101.77939124923358,101.77939124923358 0 1 0 453,411.7793912492336"/><line x1="678.6579375921015" y1="412.8712554685675" x2="545.6101916075872" y2="352.2184425751419"/><text x="453" y="199.61572668676428" text-anchor="middle" style="font-color:black;font-weight:normal" transform="rotate(327.2534696859022,453,310)">Proteobacteria</text><path class="line" d=" M 543.989788644048,216.5051964376521 A 130.462331462574,130.462331462574 0 1 0 453,440.462331462574"/><line x1="625.9653864893353" y1="132.27275088891165" x2="543.989788644048" y2="216.5051964376521"/><text x="453" y="168.71782460767488" text-anchor="middle" style="font-color:black;font-weight:normal" transform="rotate(292.1110299488678,453,310)">Alphaproteobacteria</text><path class="line" d=" M 316.3733189729005,243.15559624491772 A 152.10201932207622,152.10201932207622 0 0 0 453,462.1020193220762"/><line x1="230.23230075616223" y1="201.0112291398465" x2="316.3733189729005" y2="243.15559624491772"/><text x="453" y="470.55072885758875" text-anchor="middle" style="font-color:black;font-weight:normal" transform="rotate(58.03506208911616,453,310)">Rhodobacterales</text><path class="line" d=" M 299.6574077359146,238.9587473722902 A 168.99943839310126,168.99943839310126 0 0 0 453,478.9994383931013"/><line x1="227.97580321518063" y1="205.7497680513521" x2="299.6574077359146" y2="238.9587473722902"/><text x="453" y="485.77712572112745" text-anchor="middle" style="font-color:black;font-weight:normal" transform="rotate(57.42878013148284,453,310)">Rhodobacteraceae</text><path class="line" d=" M 385.90616768556805,479.77831850025586 A 182.55481304915364,182.55481304915364 0 0 0 453,492.5548130491536"/><line x1="361.8532910414204" y1="540.6431820930763" x2="385.90616768556805" y2="479.77831850025586"/><path class="line" d=" M 406.880933026985,498.0965088731334 A 193.6679245221629,193.6679245221629 0 0 0 453,503.66792452216293"/><line x1="393.9425766423245" y1="550.8655657132258" x2="406.880933026985" y2="498.0965088731334"/><text x="232.16603773891856" y="310" text-anchor="end" style="font-color:black;font-weight:normal" transform="rotate(-83.11176040905771,453,310)">Rhodobacter sphaeroides&#160;&#160;&#160;4%</text><line x1="692.75" y1="310" x2="709.25" y2="310" class="tick" transform="rotate(91.69466764061357,453,310)"/><text x="194" y="310" text-anchor="end" style="font-color:black;font-weight:normal" transform="rotate(-88.30533235938641,453,310)">4 more</text><path class="line" d=" M 441.0019037156992,512.5878755220895 A 202.94285309663147,202.94285309663147 0 0 0 453,512.9428530966314"/><line x1="438.3380997009548" y1="557.5662106985137" x2="441.0019037156992" y2="512.5878755220895"/><path class="line" d=" M 390.2538040243425,493.2216686947987 A 193.6679245221629,193.6679245221629 0 0 0 406.880933026985,498.0965088731334"/><line x1="372.65083200867224" y1="544.6231258915059" x2="390.2538040243425" y2="493.2216686947987"/><text x="232.16603773891856" y="310" text-anchor="end" style="font-color:black;font-weight:normal" transform="rotate(-73.65960555149744,453,310)">unclassified Rhodobacter&#160;&#160;&#160;1%</text><path class="line" d=" M 384.1699331599002,491.02399533628017 A 193.6679245221629,193.6679245221629 0 0 0 390.2538040243425,493.2216686947987"/><line x1="364.8601770610119" y1="541.8089118482803" x2="384.1699331599002" y2="491.02399533628017"/><path class="line" d=" M 339.00485707576183,452.5881031401076 A 182.55481304915364,182.55481304915364 0 0 0 385.90616768556805,479.77831850025586"/><line x1="298.1380438947998" y1="503.70538080102745" x2="339.00485707576183" y2="452.5881031401076"/><line x1="692.75" y1="310" x2="709.25" y2="310" class="tick" transform="rotate(118.9700511322133,453,310)"/><text x="194" y="310" text-anchor="end" style="font-color:black;font-weight:normal" transform="rotate(-61.02994886778671,453,310)">9 more</text><path class="line" d=" M 338.1366048422065,465.92839844475657 A 193.6679245221629,193.6679245221629 0 0 0 381.82179858454134,490.11365476271527"/><line x1="305.91254569172145" y1="509.6729345332262" x2="338.1366048422065" y2="465.92839844475657"/><path class="line" d=" M 320.92998125564174,436.0308292295036 A 182.55481304915364,182.55481304915364 0 0 0 339.00485707576183,452.5881031401076"/><line x1="273.5833957399859" y1="481.2123889086462" x2="320.92998125564174" y2="436.0308292295036"/><path class="line" d=" M 320.9314338975629,451.65154018353763 A 193.6679245221629,193.6679245221629 0 0 0 332.06534828090156,461.26822205044436"/><line x1="283.88059380914035" y1="491.3908113705075" x2="320.9314338975629" y2="451.65154018353763"/><text x="232.16603773891856" y="310" text-anchor="end" style="font-color:black;font-weight:normal" transform="rotate(-49.18188458729,453,310)">unclassified Rhodovulum&#160;&#160;&#160;1%</text><path class="line" d=" M 315.09056501232965,445.9715144068923 A 193.6679245221629,193.6679245221629 0 0 0 320.9314338975629,451.65154018353763"/><line x1="276.4011132131057" y1="484.1172972040104" x2="315.09056501232965" y2="445.9715144068923"/><path class="line" d=" M 310.22316160799136,423.75866642235957 A 182.55481304915364,182.55481304915364 0 0 0 320.92998125564174,436.0308292295036"/><line x1="259.03822309694885" y1="464.5407037016819" x2="310.22316160799136" y2="423.75866642235957"/><text x="237.72259347542317" y="310" text-anchor="end" style="font-color:black;font-weight:normal" transform="rotate(-41.10299488677866,453,310)">Salipiger&#160;&#160;&#160;1%</text><path class="line" d=" M 301.34874325468553,411.6275361060089 A 182.55481304915364,182.55481304915364 0 0 0 310.22316160799136,423.75866642235957"/><line x1="246.98236045022009" y1="448.06061058222565" x2="301.34874325468553" y2="411.6275361060089"/><path class="line" d=" M 293.39249226300643,419.6937029309692 A 193.6679245221629,193.6679245221629 0 0 0 301.5315533490133,430.68377959717446"/><line x1="248.61580981240567" y1="450.4674439197969" x2="293.39249226300643" y2="419.6937029309692"/><text x="232.16603773891856" y="310" text-anchor="end" style="font-color:black;font-weight:normal" transform="rotate(-36.52300949598247,453,310)">unclassified Sulfitobacter&#160;&#160;&#160;1%</text><path class="line" d=" M 292.36473677613225,418.1830726025144 A 193.6679245221629,193.6679245221629 0 0 0 293.39249226300643,419.6937029309692"/><line x1="247.29972527556936" y1="448.53301764667424" x2="292.36473677613225" y2="418.1830726025144"/><path class="line" d=" M 293.6384235899501,399.0513769209397 A 182.55481304915364,182.55481304915364 0 0 0 301.34874325468553,411.6275361060089"/><line x1="236.50792132195934" y1="430.97594748403935" x2="293.6384235899501" y2="399.0513769209397"/><text x="237.72259347542317" y="310" text-anchor="end" style="font-color:black;font-weight:normal" transform="rotate(-31.512052593133674,453,310)">Celeribacter&#160;&#160;&#160;1%</text><line x1="229.59696940983721" y1="417.68048069697124" x2="288.55121579031646" y2="389.2644758978975"/><path class="line" d=" M 288.55121579031646,389.2644758978975 A 182.55481304915364,182.55481304915364 0 0 0 293.6384235899501,399.0513769209397"/><text x="237.72259347542317" y="310" text-anchor="end" style="font-color:black;font-weight:normal" transform="rotate(-27.465303140978822,453,310)">Dinoroseobacter shibae DFL 12 = DSM 16493&#160;&#160;&#160;1%</text><line x1="223.64565195133005" y1="404.3429013289795" x2="284.1704027014699" y2="379.446575462204"/><path class="line" d=" M 284.1704027014699,379.446575462204 A 182.55481304915364,182.55481304915364 0 0 0 288.55121579031646,389.2644758978975"/><text x="237.72259347542317" y="310" text-anchor="end" style="font-color:black;font-weight:normal" transform="rotate(-24.046749452154852,453,310)">Defluviimonas alba&#160;&#160;&#160;0.9%</text><line x1="692.75" y1="310" x2="709.25" y2="310" class="tick" transform="rotate(174.3462381300219,453,310)"/><text x="194" y="310" text-anchor="end" style="font-color:black;font-weight:normal" transform="rotate(-5.65376186997808,453,310)">29 more</text><path class="line" d=" M 273.830836481892,275.00470586446056 A 182.55481304915364,182.55481304915364 0 0 0 284.1704027014699,379.446575462204"/><line x1="209.5993916548957" y1="262.45902969823663" x2="273.830836481892" y2="275.00470586446056"/><path class="line" d=" M 301.06277692340086,236.00074040265423 A 168.99943839310126,168.99943839310126 0 0 0 299.6574077359146,238.9587473722902"/><line x1="230.0381269827063" y1="201.40900967105878" x2="301.06277692340086" y2="236.00074040265423"/><path class="line" d=" M 434.6231859582381,159.0121958980536 A 152.10201932207622,152.10201932207622 0 0 0 316.3733189729005,243.15559624491772"/><line x1="423.0368877239785" y1="63.81671075652895" x2="434.6231859582381" y2="159.0121958980536"/><text x="453" y="149.44927114241125" text-anchor="middle" style="font-color:black;font-weight:normal" transform="rotate(324.5653761869978,453,310)">Sphingomonadales</text><path class="line" d=" M 398.69476315409736,149.9632809999716 A 168.99943839310126,168.99943839310126 0 0 0 301.19509651479086,235.72967311886958"/><line x1="373.30921010247795" y1="75.15243666261085" x2="398.69476315409736" y2="149.9632809999716"/><text x="453" y="134.22287427887255" text-anchor="middle" style="font-color:black;font-weight:normal" transform="rotate(318.66325785244703,453,310)">Erythro...eraceae</text><path class="line" d=" M 365.02744368259175,150.04035164332265 A 182.55481304915364,182.55481304915364 0 0 0 289.01888835141574,229.7724810934179"/><line x1="333.48962608921806" y1="92.69544292006876" x2="365.02744368259175" y2="150.04035164332265"/><path class="line" d=" M 336.4339308319045,155.34032035652936 A 193.6679245221629,193.6679245221629 0 0 0 279.0364598260828,224.8885925455342"/><line x1="303.7321993303053" y1="111.95171375840613" x2="336.4339308319045" y2="155.34032035652936"/><path class="line" d=" M 290.5760578233218,188.32722313192644 A 202.94285309663147,202.94285309663147 0 0 0 270.7051916842066,220.81253179897357"/><line x1="254.51487453151995" y1="161.3135683131721" x2="290.5760578233218" y2="188.32722313192644"/><text x="227.52857345168428" y="310" text-anchor="end" style="font-color:black;font-weight:normal" transform="rotate(31.453615777940108,453,310)">Porphyrobacter sp. CACIAM 03H1&#160;&#160;&#160;3%</text><path class="line" d=" M 310.8671629412504,165.14124723499836 A 202.94285309663147,202.94285309663147 0 0 0 290.5760578233218,188.32722313192644"/><line x1="279.3109882771477" y1="132.97986779256183" x2="310.8671629412504" y2="165.14124723499836"/><text x="227.52857345168428" y="310" text-anchor="end" style="font-color:black;font-weight:normal" transform="rotate(41.19065010956902,453,310)">Porphyrobacter sp. HT-58-2&#160;&#160;&#160;2%</text><path class="line" d=" M 330.85147845416486,147.93353120658304 A 202.94285309663147,202.94285309663147 0 0 0 310.8671629412504,165.14124723499836"/><text x="227.52857345168428" y="310" text-anchor="end" style="font-color:black;font-weight:normal" transform="rotate(49.26953981008033,453,310)">Porphyrobacter sp. LM 6&#160;&#160;&#160;2%</text><path class="line" d=" M 354.4392341057669,143.28755170934485 A 193.6679245221629,193.6679245221629 0 0 0 336.4339308319045,155.34032035652936"/><line x1="326.78875463204236" y1="96.5176317756682" x2="354.4392341057669" y2="143.28755170934485"/><text x="232.16603773891856" y="310" text-anchor="end" style="font-color:black;font-weight:normal" transform="rotate(56.20160701241784,453,310)">Porphyrobacter neustonensis&#160;&#160;&#160;2%</text><path class="line" d=" M 382.4142478040993,141.6434992215913 A 182.55481304915364,182.55481304915364 0 0 0 365.02744368259175,150.04035164332265"/><line x1="357.1095315308394" y1="81.28835172478662" x2="382.4142478040993" y2="141.6434992215913"/><text x="237.72259347542317" y="310" text-anchor="end" style="font-color:black;font-weight:normal" transform="rotate(64.22205989773558,453,310)">Erythrobacter&#160;&#160;&#160;2%</text><line x1="692.75" y1="310" x2="709.25" y2="310" class="tick" transform="rotate(248.72169466764058,453,310)"/><text x="194" y="310" text-anchor="end" style="font-color:black;font-weight:normal" transform="rotate(68.72169466764059,453,310)">2 more</text><path class="line" d=" M 391.13154419872984,138.24856930966277 A 182.55481304915364,182.55481304915364 0 0 0 382.4142478040993,141.6434992215913"/><line x1="368.9519446108291" y1="76.67635270873453" x2="391.13154419872984" y2="138.24856930966277"/><path class="line" d=" M 430.0176104612678,142.5705523264393 A 168.99943839310126,168.99943839310126 0 0 0 398.69476315409736,149.9632809999716"/><line x1="419.2742512058061" y1="64.30389936291027" x2="430.0176104612678" y2="142.5705523264393"/><text x="453" y="134.22287427887255" text-anchor="middle" style="font-color:black;font-weight:normal" transform="rotate(346.7202337472608,453,310)">S...e</text><line x1="692.75" y1="310" x2="709.25" y2="310" class="tick" transform="rotate(256.3769174579985,453,310)"/><text x="194" y="310" text-anchor="end" style="font-color:black;font-weight:normal" transform="rotate(76.37691745799853,453,310)">11 more</text><path class="line" d=" M 426.00862425778985,129.45159817114342 A 182.55481304915364,182.55481304915364 0 0 0 394.33896269563905,137.12680233828087"/><line x1="416.33232155174255" y1="64.72570180058574" x2="426.00862425778985" y2="129.45159817114342"/><path class="line" d=" M 516.0747973353425,171.59265112372566 A 152.10201932207622,152.10201932207622 0 0 0 434.6231859582381,159.0121958980536"/><line x1="555.8424856480165" y1="84.328949251931" x2="516.0747973353425" y2="171.59265112372566"/><text x="453" y="149.44927114241125" text-anchor="middle" style="font-color:black;font-weight:normal" transform="rotate(368.78013148283424,453,310)">Rhiz...ales</text><path class="line" d=" M 453.0430912578819,141.0005671005754 A 168.99943839310126,168.99943839310126 0 0 0 432.5816566646892,142.2385579680927"/><line x1="453.0632347187441" y1="62.000008061753476" x2="453.0430912578819" y2="141.0005671005754"/><text x="453" y="134.22287427887255" text-anchor="middle" style="font-color:black;font-weight:normal" transform="rotate(356.53761869978086,453,310)">...</text><path class="line" d=" M 445.7404905868186,127.58958557557256 A 182.55481304915364,182.55481304915364 0 0 0 430.94390983903264,128.7824824852114"/><line x1="443.13798483645445" y1="62.19616496729918" x2="445.7404905868186" y2="127.58958557557256"/><text x="237.72259347542317" y="310" text-anchor="end" style="font-color:black;font-weight:normal" transform="rotate(85.39079620160705,453,310)">Rhizobium/Agrobacterium group&#160;&#160;&#160;1%</text><path class="line" d=" M 452.0225052756221,127.44780398068269 A 182.55481304915364,182.55481304915364 0 0 0 445.7404905868186,127.58958557557256"/><line x1="451.67207723753387" y1="62.00355522480382" x2="452.0225052756221" y2="127.44780398068269"/><path class="line" d=" M 472.6909686659586,142.15162815749488 A 168.99943839310126,168.99943839310126 0 0 0 453.0430912578819,141.0005671005754"/><line x1="481.89571868161363" y1="63.68914469339148" x2="472.6909686659586" y2="142.15162815749488"/><text x="453" y="134.22287427887255" text-anchor="middle" style="font-color:black;font-weight:normal" transform="rotate(363.35281227173124,453,310)">...</text><path class="line" d=" M 464.44320007776787,127.80419066457205 A 182.55481304915364,182.55481304915364 0 0 0 453.0465475897522,127.44519288516852"/><line x1="468.5455425791612" y1="62.487705141907156" x2="464.44320007776787" y2="127.80419066457205"/><path class="line" d=" M 461.78683567173584,116.53151029792966 A 193.6679245221629,193.6679245221629 0 0 0 453.04938119651985,116.33208177341396"/><line x1="464.2519161444368" y1="62.25538475462568" x2="461.78683567173584" y2="116.53151029792966"/><path class="line" d=" M 473.20671071328997,128.56695833018492 A 182.55481304915364,182.55481304915364 0 0 0 464.44320007776787,127.80419066457205"/><line x1="480.4507375247708" y1="63.523922034315575" x2="473.20671071328997" y2="128.56695833018492"/><path class="line" d=" M 486.81234918172186,144.41758783011724 A 168.99943839310126,168.99943839310126 0 0 0 472.6909686659586,142.15162815749488"/><line x1="502.6182867635454" y1="67.01435100267636" x2="486.81234918172186" y2="144.41758783011724"/><text x="453" y="134.22287427887255" text-anchor="middle" style="font-color:black;font-weight:normal" transform="rotate(369.11614317019723,453,310)">...</text><path class="line" d=" M 484.90657162270594,130.2550961648799 A 182.55481304915364,182.55481304915364 0 0 0 474.27037307194723,128.68858007066513"/><line x1="496.3449528405505" y1="65.81725068455296" x2="484.90657162270594" y2="130.2550961648799"/><path class="line" d=" M 484.31770028106894,118.88101444956516 A 193.6679245221629,193.6679245221629 0 0 0 475.56521719614676,117.65116074794497"/><line x1="493.1036448801117" y1="65.26402457478818" x2="484.31770028106894" y2="118.88101444956516"/><path class="line" d=" M 488.47485352078655,130.9251705708193 A 182.55481304915364,182.55481304915364 0 0 0 484.90657162270594,130.2550961648799"/><line x1="501.1924498522328" y1="66.72754414599251" x2="488.47485352078655" y2="130.9251705708193"/><line x1="692.75" y1="310" x2="709.25" y2="310" class="tick" transform="rotate(286.77867056245435,453,310)"/><text x="712" y="310" text-anchor="start" style="font-color:black;font-weight:normal" transform="rotate(286.77867056245435,453,310)">12 more</text><path class="line" d=" M 516.3522502858406,153.32421195058936 A 168.99943839310126,168.99943839310126 0 0 0 486.81234918172186,144.41758783011724"/><line x1="545.9669247441109" y1="80.08447006862974" x2="516.3522502858406" y2="153.32421195058936"/><path class="line" d=" M 533.9172891133642,181.20785503611847 A 152.10201932207622,152.10201932207622 0 0 0 516.0747973353425,171.59265112372566"/><line x1="584.9343937020415" y1="100.00639114850492" x2="533.9172891133642" y2="181.20785503611847"/><text x="453" y="149.44927114241125" text-anchor="middle" style="font-color:black;font-weight:normal" transform="rotate(388.31994156318484,453,310)">Rhod...ales</text><path class="line" d=" M 536.0964481431251,162.84093475704412 A 168.99943839310126,168.99943839310126 0 0 0 523.0819448284893,156.21660952417454"/><line x1="574.9407551613276" y1="94.04988485605026" x2="536.0964481431251" y2="162.84093475704412"/><text x="661.4997191965506" y="310" text-anchor="start" style="font-color:black;font-weight:normal" transform="rotate(296.9758948137326,453,310)">1%&#160;&#160;&#160;Rhodospirillaceae</text><path class="line" d=" M 542.6510513573614,166.73975021764284 A 168.99943839310126,168.99943839310126 0 0 0 536.0964481431251,162.84093475704412"/><line x1="584.5593764572725" y1="99.77124253286934" x2="542.6510513573614" y2="166.73975021764284"/><line x1="692.75" y1="310" x2="709.25" y2="310" class="tick" transform="rotate(304.572680788897,453,310)"/><text x="712" y="310" text-anchor="start" style="font-color:black;font-weight:normal" transform="rotate(304.572680788897,453,310)">7 more</text><path class="line" d=" M 544.5481205710714,188.53409572329434 A 152.10201932207622,152.10201932207622 0 0 0 533.9172891133642,181.20785503611847"/><line x1="602.2678006696947" y1="111.95171375840607" x2="544.5481205710714" y2="188.53409572329434"/><path class="line" d=" M 579.5450840891338,278.2704928572063 A 130.462331462574,130.462331462574 0 0 0 543.989788644048,216.5051964376521"/><line x1="693.553579736601" y1="249.6843695555892" x2="579.5450840891338" y2="278.2704928572063"/><text x="453" y="168.71782460767488" text-anchor="middle" style="font-color:black;font-weight:normal" transform="rotate(420.07304601899193,453,310)">Betap...teria</text><path class="line" d=" M 597.2274769566691,261.6941083037822 A 152.10201932207622,152.10201932207622 0 0 0 559.0821957977873,200.99728436147495"/><line x1="688.1606799480701" y1="231.23798754246218" x2="597.2274769566691" y2="261.6941083037822"/><text x="453" y="149.44927114241125" text-anchor="middle" style="font-color:black;font-weight:normal" transform="rotate(417.8524470416362,453,310)">Burk...ales</text><path class="line" d=" M 587.7130875452275,207.9549402410117 A 168.99943839310126,168.99943839310126 0 0 0 570.8671499118684,188.88788190756154"/><line x1="650.6861345154637" y1="160.25290580337122" x2="587.7130875452275" y2="207.9549402410117"/><text x="453" y="134.22287427887255" text-anchor="middle" style="font-color:black;font-weight:normal" transform="rotate(408.53907962016075,453,310)">Alc...eae</text><line x1="692.75" y1="310" x2="709.25" y2="310" class="tick" transform="rotate(318.2468955441928,453,310)"/><text x="712" y="310" text-anchor="start" style="font-color:black;font-weight:normal" transform="rotate(318.2468955441928,453,310)">12 more</text><path class="line" d=" M 597.3865665746255,198.291543918096 A 182.55481304915364,182.55481304915364 0 0 0 580.3212249779646,179.17352929348752"/><line x1="649.1485863474096" y1="158.24449903244755" x2="597.3865665746255" y2="198.291543918096"/><path class="line" d=" M 600.549401328859,227.59863869644545 A 168.99943839310126,168.99943839310126 0 0 0 587.7130875452275,207.9549402410117"/><line x1="669.5229179308963" y1="189.07925731831466" x2="600.549401328859" y2="227.59863869644545"/><text x="661.4997191965506" y="310" text-anchor="start" style="font-color:black;font-weight:normal" transform="rotate(326.8371073776479,453,310)">2%&#160;&#160;&#160;Burkholderiaceae</text><path class="line" d=" M 607.8116041551497,242.21963856622722 A 168.99943839310126,168.99943839310126 0 0 0 600.549401328859,227.59863869644545"/><line x1="680.179913705822" y1="210.53499706622796" x2="607.8116041551497" y2="242.21963856622722"/><text x="453" y="134.22287427887255" text-anchor="middle" style="font-color:black;font-weight:normal" transform="rotate(423.58655953250553,453,310)">Co...ae</text><line x1="692.75" y1="310" x2="709.25" y2="310" class="tick" transform="rotate(333.17019722425124,453,310)"/><text x="712" y="310" text-anchor="start" style="font-color:black;font-weight:normal" transform="rotate(333.17019722425124,453,310)">18 more</text><path class="line" d=" M 619.1472341587037,234.3603520048889 A 182.55481304915364,182.55481304915364 0 0 0 612.3842774344032,220.9892597821779"/><line x1="678.7103682074054" y1="207.2438338410902" x2="619.1472341587037" y2="234.3603520048889"/><line x1="692.75" y1="310" x2="709.25" y2="310" class="tick" transform="rotate(338.027757487217,453,310)"/><text x="712" y="310" text-anchor="start" style="font-color:black;font-weight:normal" transform="rotate(338.027757487217,453,310)">3 more</text><path class="line" d=" M 611.5032264644857,251.36948424641326 A 168.99943839310126,168.99943839310126 0 0 0 607.8116041551497,242.21963856622722"/><line x1="685.5972236177389" y1="223.96203416328592" x2="611.5032264644857" y2="251.36948424641326"/><line x1="692.75" y1="310" x2="709.25" y2="310" class="tick" transform="rotate(343.36742147552957,453,310)"/><text x="712" y="310" text-anchor="start" style="font-color:black;font-weight:normal" transform="rotate(343.36742147552957,453,310)">5 more</text><path class="line" d=" M 600.0909976940538,271.2796864782696 A 152.10201932207622,152.10201932207622 0 0 0 597.2274769566691,261.6941083037822"/><line x1="692.8296064096423" y1="246.86712512964374" x2="600.0909976940538" y2="271.2796864782696"/><path class="line" d=" M 581.0555226887942,334.9439980666741 A 130.462331462574,130.462331462574 0 0 0 579.5450840891338,278.2704928572063"/><line x1="696.4248205654011" y1="357.4168401804915" x2="581.0555226887942" y2="334.9439980666741"/><text x="453" y="168.71782460767488" text-anchor="middle" style="font-color:black;font-weight:normal" transform="rotate(448.47333820306795,453,310)">Gamma...teria</text><path class="line" d=" M 604.0456083053047,292.1045119224501 A 152.10201932207622,152.10201932207622 0 0 0 600.5350211011737,273.0075435996815"/><line x1="699.2775381068111" y1="280.82168229578383" x2="604.0456083053047" y2="292.1045119224501"/><text x="453" y="149.44927114241125" text-anchor="middle" style="font-color:black;font-weight:normal" transform="rotate(439.58363769174576,453,310)">Pseu...ales</text><path class="line" d=" M 620.4440637060068,287.12434248371494 A 168.99943839310126,168.99943839310126 0 0 0 616.9250801569987,268.8979529377772"/><line x1="698.7175490873396" y1="276.4308762326024" x2="620.4440637060068" y2="287.12434248371494"/><text x="453" y="134.22287427887255" text-anchor="middle" style="font-color:black;font-weight:normal" transform="rotate(439.072315558802,453,310)">Ps...ae</text><path class="line" d=" M 633.8046638748576,284.782282250148 A 182.55481304915364,182.55481304915364 0 0 0 630.073442649677,265.6011748398337"/><line x1="698.6224291872899" y1="275.74182900190436" x2="633.8046638748576" y2="284.782282250148"/><line x1="692.75" y1="310" x2="709.25" y2="310" class="tick" transform="rotate(348.27611395178957,453,310)"/><text x="712" y="310" text-anchor="start" style="font-color:black;font-weight:normal" transform="rotate(348.27611395178957,453,310)">39 more</text><path class="line" d=" M 644.082925690476,278.4630296589829 A 193.6679245221629,193.6679245221629 0 0 0 640.8528730805006,262.89837514348864"/><line x1="697.6897992435244" y1="269.6155704984736" x2="644.082925690476" y2="278.4630296589829"/><path class="line" d=" M 633.8746824053851,285.28949550975335 A 182.55481304915364,182.55481304915364 0 0 0 633.8046638748576,284.782282250148"/><path class="line" d=" M 620.8205925221966,290.07366308920626 A 168.99943839310126,168.99943839310126 0 0 0 620.4440637060068,287.12434248371494"/><line x1="699.2700902513989" y1="280.7588877166436" x2="620.8205925221966" y2="290.07366308920626"/><path class="line" d=" M 604.9532062978286,303.27338289607735 A 152.10201932207622,152.10201932207622 0 0 0 604.0456083053047,292.1045119224501"/><line x1="700.7573626558155" y1="299.03235440786364" x2="604.9532062978286" y2="303.27338289607735"/><text x="653.051009661038" y="310" text-anchor="start" style="font-color:black;font-weight:normal" transform="rotate(355.354273192111,453,310)">1%&#160;&#160;&#160;Enterobacterales</text><line x1="692.75" y1="310" x2="709.25" y2="310" class="tick" transform="rotate(363.6230825420014,453,310)"/><text x="712" y="310" text-anchor="start" style="font-color:black;font-weight:normal" transform="rotate(363.6230825420014,453,310)">18 more</text><path class="line" d=" M 602.8911704218204,335.8391430088157 A 152.10201932207622,152.10201932207622 0 0 0 604.9532062978286,303.27338289607735"/><line x1="697.3952449171472" y1="352.13032473038453" x2="602.8911704218204" y2="335.8391430088157"/><path class="line" d=" M 578.9759470844491,343.91873651577555 A 130.462331462574,130.462331462574 0 0 0 581.0555226887942,334.9439980666741"/><line x1="692.4716890821919" y1="374.4772062679675" x2="578.9759470844491" y2="343.91873651577555"/><text x="642.231165731287" y="310" text-anchor="start" style="font-color:black;font-weight:normal" transform="rotate(373.04601899196496,453,310)">1%&#160;&#160;&#160;delta/epsilon subdivisions</text><path class="line" d=" M 578.3965152670139,346.00185952892 A 130.462331462574,130.462331462574 0 0 0 578.9759470844491,343.91873651577555"/><line x1="691.3702286904222" y1="378.4370811335185" x2="578.3965152670139" y2="346.00185952892"/><path class="line" d=" M 511.97728748383537,392.95012986194536 A 101.77939124923358,101.77939124923358 0 0 0 545.6101916075872,352.2184425751419"/><line x1="596.706570814269" y1="512.1198196733895" x2="511.97728748383537" y2="392.95012986194536"/><text x="453" y="431.8574493985719" text-anchor="middle" style="font-color:black;font-weight:normal" transform="rotate(309.5471146822498,453,310)">Terrabacteria group</text><path class="line" d=" M 548.2517402654698,399.14889739671486 A 130.462331462574,130.462331462574 0 0 0 571.7091155294419,364.11622511657816"/><line x1="634.0670660336401" y1="479.46597770045" x2="548.2517402654698" y2="399.14889739671486"/><text x="453" y="451.28217539232514" text-anchor="middle" style="font-color:black;font-weight:normal" transform="rotate(303.80569758948144,453,310)">Ac...ia</text><path class="line" d=" M 564.8691415420079,413.05493414925576 A 152.10201932207622,152.10201932207622 0 0 0 591.3993063863454,373.0924422861544"/><line x1="635.4009124012415" y1="478.029482993892" x2="564.8691415420079" y2="413.05493414925576"/><line x1="668.1212458562776" y1="433.3971214463408" x2="599.5942328069966" y2="394.0888879990198"/><path class="line" d=" M 599.5942328069966,394.0888879990198 A 168.99943839310126,168.99943839310126 0 0 0 606.7744545242364,380.1015500039563"/><text x="453" y="485.77712572112745" text-anchor="middle" style="font-color:black;font-weight:normal" transform="rotate(297.17311906501095,453,310)">Streptomycetaceae</text><path class="line" d=" M 611.7447372377437,400.14637079068206 A 182.55481304915364,182.55481304915364 0 0 0 619.1086395571922,385.7243661701454"/><line x1="668.6541050734185" y1="432.46349237623014" x2="611.7447372377437" y2="400.14637079068206"/><line x1="692.75" y1="310" x2="709.25" y2="310" class="tick" transform="rotate(386.34039444850254,453,310)"/><text x="712" y="310" text-anchor="start" style="font-color:black;font-weight:normal" transform="rotate(386.34039444850254,453,310)">60 more</text><path class="line" d=" M 623.7219625260078,401.4400158573399 A 193.6679245221629,193.6679245221629 0 0 0 629.2205823605404,390.3341231434946"/><line x1="671.6167214365162" y1="427.09282261671154" x2="623.7219625260078" y2="401.4400158573399"/><path class="line" d=" M 611.3756507345995,400.79324326073817 A 182.55481304915364,182.55481304915364 0 0 0 611.7447372377437,400.14637079068206"/><line x1="668.1527025014955" y1="433.3422660984586" x2="611.3756507345995" y2="400.79324326073817"/><line x1="692.75" y1="310" x2="709.25" y2="310" class="tick" transform="rotate(395.71219868517164,453,310)"/><text x="712" y="310" text-anchor="start" style="font-color:black;font-weight:bold" transform="rotate(395.71219868517164,453,310)">19 more</text><path class="line" d=" M 579.4066346554989,422.17028524638266 A 168.99943839310126,168.99943839310126 0 0 0 599.5942328069966,394.0888879990198"/><line x1="638.4967430225698" y1="474.60546263116146" x2="579.4066346554989" y2="422.17028524638266"/><path class="line" d=" M 564.1305459694322,413.8509799394746 A 152.10201932207622,152.10201932207622 0 0 0 564.8691415420079,413.05493414925576"/><line x1="634.1966436951772" y1="479.32742339503966" x2="564.1305459694322" y2="413.8509799394746"/><path class="line" d=" M 535.578661842201,411.000913555284 A 130.462331462574,130.462331462574 0 0 0 548.2517402654698,399.14889739671486"/><line x1="609.9764077283936" y1="501.9958526028339" x2="535.578661842201" y2="411.000913555284"/><text x="453" y="451.28217539232514" text-anchor="middle" style="font-color:black;font-weight:normal" transform="rotate(316.9174579985391,453,310)">F...s</text><path class="line" d=" M 554.4615724532854,423.3162547790915 A 152.10201932207622,152.10201932207622 0 0 0 564.0510740985499,413.93595731704994"/><line x1="618.4315312877814" y1="494.7604082474918" x2="554.4615724532854" y2="423.3162547790915"/><text x="653.051009661038" y="310" text-anchor="start" style="font-color:black;font-weight:normal" transform="rotate(405.6318480642806,453,310)">1%&#160;&#160;&#160;Bacilli</text><path class="line" d=" M 549.4859414018027,427.5818327534536 A 152.10201932207622,152.10201932207622 0 0 0 554.4615724532854,423.3162547790915"/><line x1="610.3188414874257" y1="501.71536744104327" x2="549.4859414018027" y2="427.5818327534536"/><line x1="692.75" y1="310" x2="709.25" y2="310" class="tick" transform="rotate(412.4689554419285,453,310)"/><text x="712" y="310" text-anchor="start" style="font-color:black;font-weight:normal" transform="rotate(412.4689554419285,453,310)">6 more</text><path class="line" d=" M 529.3011815729529,415.8231998250941 A 130.462331462574,130.462331462574 0 0 0 535.578661842201,411.000913555284"/><line x1="598.0433455998807" y1="511.16269012218334" x2="529.3011815729529" y2="415.8231998250941"/><path class="line" d=" M 478.36981701914345,408.56681423014413 A 101.77939124923358,101.77939124923358 0 0 0 511.97728748383537,392.95012986194536"/><line x1="514.8171767734458" y1="550.1720979959174" x2="478.36981701914345" y2="408.56681423014413"/><text x="453" y="420.3842733132357" text-anchor="middle" style="font-color:black;font-weight:normal" transform="rotate(335.0766983199415,453,310)">FCB group</text><path class="line" d=" M 485.8736453657231,436.25269649009164 A 130.462331462574,130.462331462574 0 0 0 528.5979607859718,416.32670527977996"/><line x1="515.4905592235112" y1="549.9977708395077" x2="485.8736453657231" y2="436.25269649009164"/><text x="453" y="451.28217539232514" text-anchor="middle" style="font-color:black;font-weight:normal" transform="rotate(334.9963476990503,453,310)">Bact...roup</text><path class="line" d=" M 492.937884948637,456.76508313520173 A 152.10201932207622,152.10201932207622 0 0 0 541.1373371399244,433.96303515055024"/><line x1="518.1181063302585" y1="549.2982077408044" x2="492.937884948637" y2="456.76508313520173"/><text x="453" y="470.55072885758875" text-anchor="middle" style="font-color:black;font-weight:normal" transform="rotate(334.68224981738496,453,310)">Bacteroidetes</text><line x1="563.3216302787307" y1="532.110643357411" x2="528.1786030633743" y2="461.35715317956806"/><path class="line" d=" M 528.1786030633743,461.35715317956806 A 168.99943839310126,168.99943839310126 0 0 0 550.9287490363301,447.73441940692635"/><text x="453" y="485.77712572112745" text-anchor="middle" style="font-color:black;font-weight:normal" transform="rotate(329.0869247626004,453,310)">Flavobacteriales</text><path class="line" d=" M 537.485331109505,471.8285778060499 A 182.55481304915364,182.55481304915364 0 0 0 558.7835732618299,458.7820398951785"/><line x1="567.7729920958902" y1="529.8434904320724" x2="537.485331109505" y2="471.8285778060499"/><line x1="692.75" y1="310" x2="709.25" y2="310" class="tick" transform="rotate(418.0934989043097,453,310)"/><text x="712" y="310" text-anchor="start" style="font-color:black;font-weight:normal" transform="rotate(418.0934989043097,453,310)">41 more</text><path class="line" d=" M 545.1140221839282,480.3592436758891 A 193.6679245221629,193.6679245221629 0 0 0 565.2231988298254,467.83921766507734"/><line x1="570.9559163345087" y1="528.1522445488159" x2="545.1140221839282" y2="480.3592436758891"/><path class="line" d=" M 534.3336888761539,473.4352802218922 A 182.55481304915364,182.55481304915364 0 0 0 537.485331109505,471.8285778060499"/><line x1="563.49149844028" y1="532.0261893840941" x2="534.3336888761539" y2="473.4352802218922"/><line x1="544.8519904035911" y1="540.3632172437661" x2="515.59247900603" y2="466.98086427671154"/><path class="line" d=" M 515.59247900603,466.98086427671154 A 168.99943839310126,168.99943839310126 0 0 0 528.1786030633743,461.35715317956806"/><text x="661.4997191965506" y="310" text-anchor="start" style="font-color:black;font-weight:normal" transform="rotate(425.92403214024836,453,310)">1%&#160;&#160;&#160;Cytophagales</text><line x1="692.75" y1="310" x2="709.25" y2="310" class="tick" transform="rotate(431.0664718772827,453,310)"/><text x="712" y="310" text-anchor="start" style="font-color:black;font-weight:normal" transform="rotate(431.0664718772827,453,310)">5 more</text><path class="line" d=" M 499.9469541524326,472.3477553678923 A 168.99943839310126,168.99943839310126 0 0 0 515.59247900603,466.98086427671154"/><line x1="521.8928007128725" y1="548.2389179163144" x2="499.9469541524326" y2="472.3477553678923"/><path class="line" d=" M 491.5515152443509,457.1353287087021 A 152.10201932207622,152.10201932207622 0 0 0 492.937884948637,456.76508313520173"/><line x1="515.8576518787306" y1="549.9018874462898" x2="491.5515152443509" y2="457.1353287087021"/><path class="line" d=" M 485.583833317167,436.32780270791386 A 130.462331462574,130.462331462574 0 0 0 485.8736453657231,436.25269649009164"/><line x1="514.9396462723461" y1="550.1405426404642" x2="485.583833317167" y2="436.32780270791386"/><path class="line" d=" M 474.2017387203274,409.5466260518132 A 101.77939124923358,101.77939124923358 0 0 0 478.36981701914345,408.56681423014413"/><line x1="504.6610596517082" y1="552.5595492155744" x2="474.2017387203274" y2="409.5466260518132"/><line x1="466.9674783026763" y1="557.6063600755527" x2="456.49186957566906" y2="371.90159001888816"/><path class="line" d=" M 456.49186957566906,371.90159001888816 A 62,62 0 0 0 457.12302051121435,371.86275698563804"/><path class="highlight" fill="rgba(255, 255, 255, .3)" d=" M 591.3993063863454,373.0924422861544 L 678.6579375921015,412.8712554685675 A 248,248 0 0,1 635.4009124012415,478.029482993892 L 564.8691415420079,413.05493414925576 A 152.10201932207622,152.10201932207622 0 0 0 591.3993063863454,373.0924422861544 Z "/><path class="highlight" fill="rgba(255, 255, 255, .3)" d=" M 599.5942328069966,394.0888879990198 L 668.1212458562776,433.3971214463408 A 248,248 0 0,1 638.4967430225698,474.60546263116146 L 579.4066346554989,422.17028524638266 A 168.99943839310126,168.99943839310126 0 0 0 599.5942328069966,394.0888879990198 Z "/><rect x="409.29541015625" y="459.55072885758875" width="87.4091796875" height="22" rx="11" ry="11" fill="rgba(255, 255, 255, .75)" class="highlight" transform="rotate(303.5792549306063,453,310)"/><text x="453" y="470.55072885758875" text-anchor="middle" style="font-color:black;font-weight:bold" transform="rotate(303.5792549306063,453,310)">Actinobacteria</text></svg>